<?xml version="1.0" encoding="utf-8"?>
<!-- Generator: Adobe Illustrator 19.0.0, SVG Export Plug-In . SVG Version: 6.00 Build 0)  -->
<svg version="1.1" id="Layer_1" xmlns="http://www.w3.org/2000/svg" xmlns:xlink="http://www.w3.org/1999/xlink" x="0px" y="0px"
	 viewBox="0 0 360 100" style="enable-background:new 0 0 360 100;" xml:space="preserve">
<style type="text/css">
	.st0{fill:#20C9C9;}
</style>
<g id="XMLID_140_">
	<polygon id="XMLID_273_" class="st0" points="264.9,42.2 271.4,42.2 271.4,44.3 267.1,44.3 267.1,48.9 270.9,48.9 270.9,50.9 
		267.1,50.9 267.1,57.4 264.9,57.4 264.9,42.2 	"/>
	<path id="XMLID_270_" class="st0" d="M275.1,53.8c0,1,0.7,1.5,1.5,1.5c0.8,0,1.5-0.5,1.5-1.5v-8c0-1-0.7-1.5-1.5-1.5
		c-0.8,0-1.5,0.5-1.5,1.5V53.8L275.1,53.8z M272.9,45.8c0-2.5,1.9-3.7,3.6-3.7c1.8,0,3.7,1.2,3.7,3.7v8c0,2.5-1.9,3.7-3.7,3.7
		c-1.8,0-3.6-1.2-3.6-3.7V45.8L272.9,45.8z"/>
	<path id="XMLID_269_" class="st0" d="M290.5,54c0,2-1.6,3.5-3.5,3.5c-1.9,0-3.5-1.6-3.5-3.5V42.2h2.2v11.6c0,1.1,0.6,1.6,1.3,1.6
		c0.8,0,1.3-0.5,1.3-1.6V42.2h2.2V54L290.5,54z"/>
	<polygon id="XMLID_268_" class="st0" points="293.7,42.2 295.8,42.2 299.1,51.4 299.1,51.4 299.1,42.2 301.3,42.2 301.3,57.4 
		299.3,57.4 295.9,48.3 295.9,48.3 295.9,57.4 293.7,57.4 293.7,42.2 	"/>
	<path id="XMLID_265_" class="st0" d="M306.7,55.4h1c1.2,0,1.7-0.6,1.7-1.9v-7.3c0-1.2-0.4-1.9-1.7-1.9h-1V55.4L306.7,55.4z
		 M304.6,42.2h3.2c2.5,0,3.8,1.5,3.8,3.9v7.1c0,2.8-1.5,4.2-4,4.2h-3V42.2L304.6,42.2z"/>
	<path id="XMLID_262_" class="st0" d="M318,46.6L318,46.6l-1.1,5.5h2.2L318,46.6L318,46.6z M317.1,42.2h1.8l3.4,15.2h-2.2l-0.6-3.3
		h-3l-0.6,3.3h-2.2L317.1,42.2L317.1,42.2z"/>
	<polygon id="XMLID_261_" class="st0" points="324.9,44.3 322.4,44.3 322.4,42.2 329.6,42.2 329.6,44.3 327.1,44.3 327.1,57.4 
		324.9,57.4 324.9,44.3 	"/>
	<polygon id="XMLID_260_" class="st0" points="331.9,42.2 334.1,42.2 334.1,57.4 331.9,57.4 331.9,42.2 	"/>
	<path id="XMLID_257_" class="st0" d="M339.5,53.8c0,1,0.7,1.5,1.5,1.5c0.8,0,1.5-0.5,1.5-1.5v-8c0-1-0.7-1.5-1.5-1.5
		c-0.8,0-1.5,0.5-1.5,1.5V53.8L339.5,53.8z M337.4,45.8c0-2.5,1.9-3.7,3.6-3.7c1.8,0,3.7,1.2,3.7,3.7v8c0,2.5-1.9,3.7-3.7,3.7
		c-1.8,0-3.6-1.2-3.6-3.7V45.8L337.4,45.8z"/>
	<polygon id="XMLID_256_" class="st0" points="347.8,42.2 349.9,42.2 353.2,51.4 353.2,51.4 353.2,42.2 355.4,42.2 355.4,57.4 
		353.3,57.4 350,48.3 350,48.3 350,57.4 347.8,57.4 347.8,42.2 	"/>
	<polygon id="XMLID_255_" class="st0" points="87.8,42.2 94.3,42.2 94.3,44.3 90,44.3 90,48.7 93.8,48.7 93.8,50.8 90,50.8 90,55.2 
		94.3,55.2 94.3,57.4 87.8,57.4 87.8,42.2 	"/>
	<polygon id="XMLID_254_" class="st0" points="97,42.2 99.2,42.2 99.2,55.2 103.5,55.2 103.5,57.4 97,57.4 97,42.2 	"/>
	<polygon id="XMLID_253_" class="st0" points="106.2,42.2 112.7,42.2 112.7,44.3 108.4,44.3 108.4,48.7 112.1,48.7 112.1,50.8 
		108.4,50.8 108.4,55.2 112.7,55.2 112.7,57.4 106.2,57.4 106.2,42.2 	"/>
	<path id="XMLID_252_" class="st0" d="M122.3,54c0,1.9-1.5,3.5-3.5,3.5c-1.7,0-3.6-0.8-3.6-3.6v-8.4c0-2,1.4-3.5,3.5-3.5
		c2,0,3.5,1.5,3.5,3.6v0.9h-2.2v-0.7c0-0.9-0.5-1.6-1.3-1.6c-1.1,0-1.3,0.7-1.3,1.8v7.8c0,0.9,0.3,1.6,1.3,1.6
		c0.6,0,1.4-0.3,1.4-1.5v-0.7h2.2V54L122.3,54z"/>
	<polygon id="XMLID_251_" class="st0" points="126.1,44.3 123.6,44.3 123.6,42.2 130.8,42.2 130.8,44.3 128.3,44.3 128.3,57.4 
		126.1,57.4 126.1,44.3 	"/>
	<path id="XMLID_248_" class="st0" d="M135.2,49h1.2c1.5,0,1.8-0.9,1.8-2.4c0-1.5-0.3-2.4-1.9-2.4h-1.1V49L135.2,49z M133.1,42.2
		h3.5c2.6,0,3.8,1.5,3.8,4.5c0,1.8-0.5,3-1.9,3.8l2.3,6.9h-2.3l-2-6.5h-1.3v6.5h-2.2V42.2L133.1,42.2z"/>
	<path id="XMLID_245_" class="st0" d="M145.5,53.8c0,1,0.7,1.5,1.5,1.5c0.8,0,1.5-0.5,1.5-1.5v-8c0-1-0.7-1.5-1.5-1.5
		c-0.8,0-1.5,0.5-1.5,1.5V53.8L145.5,53.8z M143.3,45.8c0-2.5,1.9-3.7,3.7-3.7c1.8,0,3.7,1.2,3.7,3.7v8c0,2.5-1.9,3.7-3.7,3.7
		c-1.8,0-3.7-1.2-3.7-3.7V45.8L143.3,45.8z"/>
	<polygon id="XMLID_244_" class="st0" points="153.7,42.2 155.8,42.2 159.1,51.4 159.1,51.4 159.1,42.2 161.3,42.2 161.3,57.4 
		159.3,57.4 155.9,48.3 155.9,48.3 155.9,57.4 153.7,57.4 153.7,42.2 	"/>
	<polygon id="XMLID_243_" class="st0" points="164.6,42.2 166.8,42.2 166.8,57.4 164.6,57.4 164.6,42.2 	"/>
	<path id="XMLID_242_" class="st0" d="M177.1,54c0,1.9-1.5,3.5-3.5,3.5c-1.7,0-3.6-0.8-3.6-3.6v-8.4c0-2,1.4-3.5,3.5-3.5
		c2,0,3.5,1.5,3.5,3.6v0.9h-2.2v-0.7c0-0.9-0.5-1.6-1.3-1.6c-1.1,0-1.3,0.7-1.3,1.8v7.8c0,0.9,0.3,1.6,1.3,1.6
		c0.6,0,1.4-0.3,1.4-1.5v-0.7h2.2V54L177.1,54z"/>
	<polygon id="XMLID_241_" class="st0" points="185.4,42.2 191.9,42.2 191.9,44.3 187.6,44.3 187.6,48.9 191.4,48.9 191.4,50.9 
		187.6,50.9 187.6,57.4 185.4,57.4 185.4,42.2 	"/>
	<path id="XMLID_238_" class="st0" d="M196.8,49h1.2c1.5,0,1.8-0.9,1.8-2.4c0-1.5-0.3-2.4-1.9-2.4h-1.1V49L196.8,49z M194.6,42.2
		h3.5c2.6,0,3.8,1.5,3.8,4.5c0,1.8-0.5,3-1.9,3.8l2.3,6.9h-2.3l-2-6.5h-1.3v6.5h-2.2V42.2L194.6,42.2z"/>
	<path id="XMLID_235_" class="st0" d="M207,53.8c0,1,0.7,1.5,1.5,1.5s1.5-0.5,1.5-1.5v-8c0-1-0.7-1.5-1.5-1.5s-1.5,0.5-1.5,1.5V53.8
		L207,53.8z M204.9,45.8c0-2.5,1.9-3.7,3.6-3.7c1.8,0,3.7,1.2,3.7,3.7v8c0,2.5-1.9,3.7-3.7,3.7c-1.8,0-3.6-1.2-3.6-3.7V45.8
		L204.9,45.8z"/>
	<polygon id="XMLID_234_" class="st0" points="215.3,42.2 217.4,42.2 220.7,51.4 220.7,51.4 220.7,42.2 222.9,42.2 222.9,57.4 
		220.8,57.4 217.5,48.3 217.5,48.3 217.5,57.4 215.3,57.4 215.3,42.2 	"/>
	<polygon id="XMLID_233_" class="st0" points="227.6,44.3 225,44.3 225,42.2 232.3,42.2 232.3,44.3 229.7,44.3 229.7,57.4 
		227.6,57.4 227.6,44.3 	"/>
	<polygon id="XMLID_230_" class="st0" points="234.6,42.2 236.7,42.2 236.7,57.4 234.6,57.4 234.6,42.2 	"/>
	<polygon id="XMLID_228_" class="st0" points="240.1,42.2 246.6,42.2 246.6,44.3 242.3,44.3 242.3,48.7 246.1,48.7 246.1,50.8 
		242.3,50.8 242.3,55.2 246.6,55.2 246.6,57.4 240.1,57.4 240.1,42.2 	"/>
	<path id="XMLID_224_" class="st0" d="M251.5,49h1.2c1.5,0,1.8-0.9,1.8-2.4c0-1.5-0.3-2.4-1.9-2.4h-1.1V49L251.5,49z M249.3,42.2
		h3.5c2.6,0,3.8,1.5,3.8,4.5c0,1.8-0.5,3-1.9,3.8l2.3,6.9h-2.3l-2-6.5h-1.3v6.5h-2.2V42.2L249.3,42.2z"/>
	<path id="XMLID_143_" class="st0" d="M51.4,38.1H49v3.1h1.6v2.3H49v4.7h-2.3V35.8h4.7V38.1L51.4,38.1z M51.4,53.7H49v3.1h1.6v2.3
		H49v4.7h-2.3V51.4h4.7V53.7L51.4,53.7z M6.9,63.9V35.8h25.7H42v4.7H29.4h-10v6.2h8h13.8v4.7h-14h-7.9v7.8h10H42v4.7h-9.5H6.9
		L6.9,63.9z M28.8,57.9h-8.2v-5.3h6.7C27.6,54.5,28.1,56.3,28.8,57.9L28.8,57.9z M27.6,45.4h-7v-3.7h8.2
		C28.3,42.9,27.9,44.2,27.6,45.4L27.6,45.4z M48.2,28.7c-5.6,0-10.7,2.2-14.5,5.8H6.9H5.6v1.3v28.1v1.3h1.3h26.9
		c3.8,3.6,8.9,5.8,14.5,5.8c11.6,0,21.1-9.4,21.1-21.1S59.9,28.7,48.2,28.7L48.2,28.7z"/>
</g>
</svg>
