<svg xmlns="http://www.w3.org/2000/svg" viewBox="0 0 127.255 23.413">
  <defs>
    <style>
      .cls-1 {
        fill: #20c9c9;
      }
    </style>
  </defs>
  <g id="Group_2" data-name="Group 2" transform="translate(0 0.1)">
    <g id="Group_182" data-name="Group 182" transform="translate(32.214 -0.1)">
      <path id="Path_95" data-name="Path 95" class="cls-1" d="M153.1.3h2.253V1.311H154.09V3.058h.905V4.132h-.905V5.964h1.263V6.974H153.1Z" transform="translate(-153.079 -0.216)"/>
      <path id="Path_96" data-name="Path 96" class="cls-1" d="M166.3.3h.99V6.048h1.305v.905H166.3Z" transform="translate(-163.5 -0.216)"/>
      <path id="Path_97" data-name="Path 97" class="cls-1" d="M179.6.3h2.253V1.311H180.59V3.058h.905V4.132h-.905V5.964h1.263V6.974H179.6Z" transform="translate(-173.999 -0.216)"/>
      <path id="Path_98" data-name="Path 98" class="cls-1" d="M195.332,4.364v.905a1.561,1.561,0,0,1-.168.716,1.106,1.106,0,0,1-.4.484,1.163,1.163,0,0,1-.758.232,1.124,1.124,0,0,1-.758-.232,1.177,1.177,0,0,1-.379-.484,1.884,1.884,0,0,1-.168-.716V1.353a1.628,1.628,0,0,1,.168-.716,1.452,1.452,0,0,1,.379-.505,1.349,1.349,0,0,1,.758-.232,1.163,1.163,0,0,1,.758.232,1.16,1.16,0,0,1,.4.505,1.884,1.884,0,0,1,.168.716v.905h-.926V1.353a.543.543,0,0,0-.147-.421.339.339,0,0,0-.232-.063.315.315,0,0,0-.295.253.785.785,0,0,0-.042.253V5.29a.634.634,0,0,0,.147.421.257.257,0,0,0,.19.063.31.31,0,0,0,.337-.253.786.786,0,0,0,.042-.253V4.364h.926Z" transform="translate(-184.341 0.1)"/>
      <path id="Path_99" data-name="Path 99" class="cls-1" d="M206.6,1.311V.3h2.842V1.311h-.926V6.953h-.99V1.311Z" transform="translate(-195.315 -0.216)"/>
      <path id="Path_100" data-name="Path 100" class="cls-1" d="M223.869,6.953l-.505-2.8h-.274v2.8h-.99V.3h.99c1.179,0,1.684.653,1.684,1.916a1.83,1.83,0,0,1-.547,1.516l.632,3.221h-.99Zm-.779-3.706a.707.707,0,0,0,.463-.147,1.063,1.063,0,0,0,.274-.842,1.063,1.063,0,0,0-.274-.842.678.678,0,0,0-.463-.126Z" transform="translate(-207.551 -0.216)"/>
      <path id="Path_101" data-name="Path 101" class="cls-1" d="M240.232,5.269a1.561,1.561,0,0,1-.168.716,1.106,1.106,0,0,1-.4.484,1.163,1.163,0,0,1-.758.232,1.124,1.124,0,0,1-.758-.232,1.177,1.177,0,0,1-.379-.484,1.885,1.885,0,0,1-.168-.716V1.353a1.629,1.629,0,0,1,.168-.716,1.452,1.452,0,0,1,.379-.505,1.349,1.349,0,0,1,.758-.232,1.163,1.163,0,0,1,.758.232,1.16,1.16,0,0,1,.4.505,1.883,1.883,0,0,1,.168.716Zm-.99-3.916a.629.629,0,0,0-.126-.421.321.321,0,0,0-.505.189.785.785,0,0,0-.042.253V5.29a.629.629,0,0,0,.126.421.257.257,0,0,0,.189.063.3.3,0,0,0,.295-.253.786.786,0,0,0,.042-.253V1.353Z" transform="translate(-219.788 0.1)"/>
      <path id="Path_102" data-name="Path 102" class="cls-1" d="M254.453,3.5l-.084-.316h-.063V6.953H253.4V.3h.884l.947,3.453.084.316h.063V.3h.905V6.953h-.863Z" transform="translate(-232.261 -0.216)"/>
      <path id="Path_103" data-name="Path 103" class="cls-1" d="M270.8.3h.99V6.953h-.99Z" transform="translate(-245.998 -0.216)"/>
      <path id="Path_104" data-name="Path 104" class="cls-1" d="M281.432,4.364v.905a1.561,1.561,0,0,1-.168.716,1.106,1.106,0,0,1-.4.484,1.163,1.163,0,0,1-.758.232,1.124,1.124,0,0,1-.758-.232,1.176,1.176,0,0,1-.379-.484,1.883,1.883,0,0,1-.168-.716V1.353a1.627,1.627,0,0,1,.168-.716,1.451,1.451,0,0,1,.379-.505,1.349,1.349,0,0,1,.758-.232,1.163,1.163,0,0,1,.758.232,1.16,1.16,0,0,1,.4.505,1.883,1.883,0,0,1,.168.716v.905h-.926V1.353a.543.543,0,0,0-.147-.421.338.338,0,0,0-.232-.063.315.315,0,0,0-.295.253.785.785,0,0,0-.042.253V5.29a.634.634,0,0,0,.147.421.258.258,0,0,0,.19.063.31.31,0,0,0,.337-.253.785.785,0,0,0,.042-.253V4.364h.926Z" transform="translate(-252.313 0.1)"/>
      <path id="Path_105" data-name="Path 105" class="cls-1" d="M155.253,40.79H153.99v1.748h.905v1.011h-.905v2.884H153V39.8h2.253Z" transform="translate(-153 -31.399)"/>
      <path id="Path_106" data-name="Path 106" class="cls-1" d="M168.069,46.432l-.526-2.8h-.253v2.8h-.99V39.8h.99c1.179,0,1.684.653,1.684,1.916a1.83,1.83,0,0,1-.547,1.516l.632,3.221h-.99Zm-.779-3.706a.707.707,0,0,0,.463-.147,1.432,1.432,0,0,0,0-1.684.678.678,0,0,0-.463-.126Z" transform="translate(-163.5 -31.399)"/>
      <path id="Path_107" data-name="Path 107" class="cls-1" d="M184.432,44.769a1.561,1.561,0,0,1-.168.716,1.106,1.106,0,0,1-.4.484,1.163,1.163,0,0,1-.758.232,1.124,1.124,0,0,1-.758-.232,1.176,1.176,0,0,1-.379-.484,1.884,1.884,0,0,1-.168-.716V40.853a1.628,1.628,0,0,1,.168-.716,1.452,1.452,0,0,1,.379-.505,1.349,1.349,0,0,1,.758-.232,1.207,1.207,0,0,1,1.158.737,1.884,1.884,0,0,1,.168.716Zm-.99-3.916a.629.629,0,0,0-.126-.421.321.321,0,0,0-.505.189.786.786,0,0,0-.042.253V44.79a.629.629,0,0,0,.126.421.257.257,0,0,0,.189.063.3.3,0,0,0,.295-.253.785.785,0,0,0,.042-.253V40.853Z" transform="translate(-175.736 -31.083)"/>
      <path id="Path_108" data-name="Path 108" class="cls-1" d="M198.732,42.979l-.084-.316h-.042v3.769H197.7V39.8h.884l.947,3.453.084.316h.063V39.8h.905v6.653H199.7Z" transform="translate(-188.289 -31.399)"/>
      <path id="Path_109" data-name="Path 109" class="cls-1" d="M213.3,40.711V39.7h2.842v1.011h-.926v5.643h-.99V40.711Z" transform="translate(-200.604 -31.32)"/>
      <path id="Path_110" data-name="Path 110" class="cls-1" d="M228.9,39.8h.99v6.653h-.99Z" transform="translate(-212.92 -31.399)"/>
      <path id="Path_111" data-name="Path 111" class="cls-1" d="M237.2,39.8h2.253v1.011H238.19v1.748h.905v1.074h-.905v1.832h1.263v1.011H237.2Z" transform="translate(-219.472 -31.399)"/>
      <path id="Path_112" data-name="Path 112" class="cls-1" d="M252.39,46.432l-.526-2.8h-.274v2.8h-.99V39.8h.99c1.179,0,1.684.653,1.684,1.916a1.83,1.83,0,0,1-.547,1.516l.632,3.221h-.969Zm-.779-3.706a.707.707,0,0,0,.463-.147,1.433,1.433,0,0,0,0-1.684.678.678,0,0,0-.463-.126Z" transform="translate(-230.051 -31.399)"/>
      <path id="Path_113" data-name="Path 113" class="cls-1" d="M155.353,80.211H154.09v1.748h.905v.99h-.905v2.884h-.99V79.2h2.253Z" transform="translate(-153.079 -62.504)"/>
      <path id="Path_114" data-name="Path 114" class="cls-1" d="M168.632,84.169a1.561,1.561,0,0,1-.168.716,1.106,1.106,0,0,1-.4.484,1.163,1.163,0,0,1-.758.232,1.124,1.124,0,0,1-.758-.232,1.177,1.177,0,0,1-.379-.484,1.884,1.884,0,0,1-.168-.716V80.253a1.629,1.629,0,0,1,.168-.716,1.452,1.452,0,0,1,.379-.505,1.349,1.349,0,0,1,.758-.232,1.207,1.207,0,0,1,1.158.737,1.884,1.884,0,0,1,.168.716Zm-.99-3.916a.629.629,0,0,0-.126-.421.321.321,0,0,0-.505.189.785.785,0,0,0-.042.253V84.19a.629.629,0,0,0,.126.421.257.257,0,0,0,.19.063.3.3,0,0,0,.295-.253.786.786,0,0,0,.042-.253V80.253Z" transform="translate(-163.263 -62.188)"/>
      <path id="Path_115" data-name="Path 115" class="cls-1" d="M184.432,79.2v5.285a1.561,1.561,0,0,1-.168.716,1.106,1.106,0,0,1-.4.484,1.163,1.163,0,0,1-.758.232,1.124,1.124,0,0,1-.758-.232,1.176,1.176,0,0,1-.379-.484,1.884,1.884,0,0,1-.168-.716V79.2h.99v5.285a.629.629,0,0,0,.126.421.257.257,0,0,0,.189.063.3.3,0,0,0,.295-.253.785.785,0,0,0,.042-.253V79.2Z" transform="translate(-175.736 -62.504)"/>
      <path id="Path_116" data-name="Path 116" class="cls-1" d="M198.853,82.379l-.084-.316h-.063v3.769H197.8V79.2h.884l.947,3.453.084.316h.063V79.2h.905v6.653H199.8Z" transform="translate(-188.368 -62.504)"/>
      <path id="Path_117" data-name="Path 117" class="cls-1" d="M215.2,85.853V79.2h.779c.905,0,1.411.189,1.663.695a6.681,6.681,0,0,1,.295,2.632,6.619,6.619,0,0,1-.295,2.632c-.274.505-.758.695-1.663.695Zm.99-.99c.337,0,.526-.042.632-.358a2.621,2.621,0,0,0,.084-.716V81.221a2.88,2.88,0,0,0-.084-.716c-.105-.316-.295-.358-.632-.358Z" transform="translate(-202.104 -62.504)"/>
      <path id="Path_118" data-name="Path 118" class="cls-1" d="M229.9,85.853l1.011-6.653h1.2l1.011,6.653h-.947l-.19-1.348h-.947l-.189,1.348Zm1.663-4.485-.021-.168h-.063l-.021.168-.274,2.105h.674Z" transform="translate(-213.709 -62.504)"/>
      <path id="Path_119" data-name="Path 119" class="cls-1" d="M244.6,80.211V79.2h2.842v1.011h-.926v5.643h-.99V80.211Z" transform="translate(-225.314 -62.504)"/>
      <path id="Path_120" data-name="Path 120" class="cls-1" d="M260.7,79.2h.99v6.653h-.99Z" transform="translate(-238.024 -62.504)"/>
      <path id="Path_121" data-name="Path 121" class="cls-1" d="M271.332,84.169a1.561,1.561,0,0,1-.168.716,1.106,1.106,0,0,1-.4.484,1.163,1.163,0,0,1-.758.232,1.124,1.124,0,0,1-.758-.232,1.177,1.177,0,0,1-.379-.484,1.883,1.883,0,0,1-.168-.716V80.253a1.628,1.628,0,0,1,.168-.716,1.452,1.452,0,0,1,.379-.505,1.349,1.349,0,0,1,.758-.232,1.207,1.207,0,0,1,1.158.737,1.884,1.884,0,0,1,.168.716Zm-.969-3.916a.629.629,0,0,0-.126-.421.321.321,0,0,0-.505.189.786.786,0,0,0-.042.253V84.19a.629.629,0,0,0,.126.421.257.257,0,0,0,.19.063.3.3,0,0,0,.295-.253.786.786,0,0,0,.042-.253V80.253Z" transform="translate(-244.34 -62.188)"/>
      <path id="Path_122" data-name="Path 122" class="cls-1" d="M285.553,82.379l-.084-.316h-.063v3.769H284.5V79.2h.884l.947,3.453.084.316h.063V79.2h.905v6.653H286.5Z" transform="translate(-256.813 -62.504)"/>
    </g>
    <g id="Group_183" data-name="Group 183" transform="translate(0 0.005)">
      <path id="Path_123" data-name="Path 123" class="cls-1" d="M0,.4V23.623H30.571V16.991H9.959V15.328H30.571V8.7H9.959V7.032H30.571V.4Z" transform="translate(0 -0.4)"/>
      <path id="Path_124" data-name="Path 124" class="cls-1" d="M306.2.4V23.623h9.959v-8.3H336.75V8.7H316.159V7.032H336.75V.4Z" transform="translate(-241.731 -0.4)"/>
      <path id="Path_125" data-name="Path 125" class="cls-1" d="M459.2.4V23.623h9.959v-8.3h20.613V8.7H469.159V7.032h20.613V.4Z" transform="translate(-362.517 -0.4)"/>
    </g>
  </g>
</svg>
