<?xml version="1.0" encoding="utf-8"?>
<!-- Generator: Adobe Illustrator 19.0.0, SVG Export Plug-In . SVG Version: 6.00 Build 0)  -->
<svg version="1.1" id="Layer_1" xmlns="http://www.w3.org/2000/svg" xmlns:xlink="http://www.w3.org/1999/xlink" x="0px" y="0px"
	 viewBox="-549 251 100 100" style="enable-background:new -549 251 100 100;" xml:space="preserve">
<style type="text/css">
	.st0{fill:#FFFFFF;}
	.st1{fill:#DDB926;}
</style>
<rect x="-543" y="257.1" class="st0" width="88" height="87.8"/>
<g id="XMLID_940_">
	<g id="XMLID_2_">
		<path id="XMLID_4_" class="st1" d="M-449,351h-100V251h100V351z"/>
	</g>
</g>
<path class="st0" d="M-499,339.3c-21.1,0-38.3-17.2-38.3-38.3c0-21.1,17.2-38.3,38.3-38.3c21.1,0,38.3,17.2,38.3,38.3
	C-460.7,322.1-477.9,339.3-499,339.3z M-499,269.9c-17.1,0-31.1,13.9-31.1,31.1c0,17.1,13.9,31.1,31.1,31.1
	c17.1,0,31.1-13.9,31.1-31.1C-467.9,283.9-481.9,269.9-499,269.9z"/>
<rect x="-501.5" y="274" class="st0" width="5" height="27"/>
<rect x="-501.5" y="297.8" class="st0" width="19.8" height="6.3"/>
</svg>
