<?xml version="1.0" encoding="utf-8"?>
<!-- Generator: Adobe Illustrator 19.0.0, SVG Export Plug-In . SVG Version: 6.00 Build 0)  -->
<svg version="1.1" id="Layer_1" xmlns="http://www.w3.org/2000/svg" xmlns:xlink="http://www.w3.org/1999/xlink" x="0px" y="0px"
	 viewBox="0 0 100 100" style="enable-background:new 0 0 100 100;" xml:space="preserve">
<style type="text/css">
	.st0{fill:#20C9C9;}
</style>
<rect id="XMLID_1_" width="100" height="100"/>
<g id="XMLID_173_">
	<circle id="XMLID_170_" class="st0" cx="50" cy="50.3" r="43.3"/>
</g>
<g id="XMLID_3_">
	<path d="M34.6,60.4H20c-5.7,0-10.4-4.7-10.4-10.4S14.3,39.6,20,39.6h14.6C40.3,39.6,45,44.3,45,50C45,55.6,40.2,60.4,34.6,60.4z
		 M20,44.6c-3,0-5.4,2.4-5.4,5.4s2.4,5.4,5.4,5.4h14.6c2.9,0,5.4-2.5,5.4-5.4c0-3-2.4-5.4-5.4-5.4H20z"/>
	<path d="M78.4,60.4H63.7c-5.7,0-10.4-4.7-10.4-10.4S58,39.6,63.7,39.6h14.6c5.7,0,10.4,4.7,10.4,10.4c0.1,2.7-1,5.3-2.9,7.3
		C83.8,59.3,81.1,60.4,78.4,60.4z M63.7,44.6c-3,0-5.4,2.4-5.4,5.4s2.4,5.4,5.4,5.4h14.7c1.4,0,2.8-0.6,3.8-1.6c1-1,1.5-2.3,1.5-3.7
		c0-3-2.4-5.5-5.4-5.5H63.7z"/>
	<path d="M63.7,52.5H33.8c-1.4,0-2.5-1.1-2.5-2.5s1.1-2.5,2.5-2.5h29.9c1.4,0,2.5,1.1,2.5,2.5S65.1,52.5,63.7,52.5z"/>
</g>
</svg>
