<?xml version="1.0" encoding="utf-8"?>
<!-- Generator: Adobe Illustrator 19.0.0, SVG Export Plug-In . SVG Version: 6.00 Build 0)  -->
<svg version="1.1" id="Layer_1" xmlns="http://www.w3.org/2000/svg" xmlns:xlink="http://www.w3.org/1999/xlink" x="0px" y="0px"
	 viewBox="0 0 100 100" style="enable-background:new 0 0 100 100;" xml:space="preserve">
<style type="text/css">
	.st0{fill:#20C9C9;}
</style>
<rect id="XMLID_1_" width="100" height="100"/>
<g id="XMLID_173_">
	<circle id="XMLID_170_" class="st0" cx="50" cy="50.3" r="43.3"/>
	<g id="XMLID_159_">
		<path id="XMLID_103_" d="M55.2,18.7c-7.6,4.7-15.4,0.7-21.1,0C9.3,15.4,1.3,44.5,19.5,56.1c-4.7,2.4-4.4,14.7,0.6,16.5
			c-11.8,1.3-14,18-7.7,24.8c7.7,8.2,31.4,7.7,38.3,0c4.8-5.4,5.5-16.5,1.3-21.6c-3.9-4.7-23.3-5.4-23-12.7
			c0.2-5.1,7.2-4.3,11.5-6.3c8-3.8,12.7-15.3,9.6-24.1c1.8-0.3,3.3-0.9,5.1-1.3V18.7z M24.6,45.4c-9.3-20.4,21.5-18.9,12.1,0
			C33.7,47.6,27.6,47.9,24.6,45.4 M41.8,85.3c0.8,9.1-17.7,9.5-19.8,3.2c-1.8-5.4,0.4-6.9,5.7-8.2C33.8,78.7,41.3,79.2,41.8,85.3"/>
		<polygon id="XMLID_100_" points="72.5,30.2 83.8,30.2 83.8,44.6 98.3,44.6 98.3,55.6 83.8,55.6 83.8,70 72.5,70 72.5,55.6 
			58,55.6 58,44.6 72.5,44.6 		"/>
	</g>
</g>
</svg>
