<?xml version="1.0" encoding="utf-8"?>
<!-- Generator: Adobe Illustrator 19.0.0, SVG Export Plug-In . SVG Version: 6.00 Build 0)  -->
<svg version="1.1" id="Layer_1" xmlns="http://www.w3.org/2000/svg" xmlns:xlink="http://www.w3.org/1999/xlink" x="0px" y="0px"
	 viewBox="0 0 1200 600" style="enable-background:new 0 0 1200 600;" xml:space="preserve">
<style type="text/css">
	.st0{fill:#20C9C9;}
	.st1{fill:#F42AAC;}
	.st2{fill:#2FEFF4;}
</style>
<circle id="XMLID_129_" class="st0" cx="566.6" cy="163.4" r="150.7"/>
<g id="XMLID_211_">
	<path id="XMLID_220_" d="M730.3,134.9c-3.8-4.6-8.4-9.5-10.9-11.3c-2.5-1.8-5.8-8-2.9-12.8c2.9-4.8,7.2-10.7,3.7-18
		c-3.5-7.3-4-10.2-4-10.2s-1,6-3,11.3c-2,5.3-3.5,10.8-4.1,16.7c-0.6,6-3.2,7.5-6.5,8.6c-3.3,1.2-8.3,0-11.5-6.7
		c-3.2-6.7-11.1-12.6-24.8-15.7c0,0,2.9,15.8,12.3,20.5c9.4,4.6,12.3,7.9,12.5,11.5c0.4,11.6-18,23.7-36.6,13.5
		c-18.5-10.1-50.8-55.1-110.9-44.8c-60.1,10.3-99.8,104.3-112.8,151.5c-13,47.3-40.7,70.7-83.1,74.7c0,0,32.6,11,61.3-8.3
		c28.7-19.3,43.3-51.1,51.1-70.6c7.8-19.5,24.7-45.2,42.6-52.7c0,0,3,13.4,11.5,20.8c8.5,7.4,9.1,30.3-0.8,41.9
		c-9.9,11.6-24,30.3-24,30.3s4.9,42.7,7.1,56.7c2.2,14-3.7,34.5-12.7,38.5c0,0,1.6,4.5,6.2,3.8c0,0-3.4,5.8-2.9,9.6
		c0.6,3.8-1.4,10.2-4.2,12c0,0,8.1,4.4,14.2-6.6c6.1-11,16.3-34.7,16.3-34.7s-2.8-31.7-5.2-47.4c-2.5-15.7,15.2-41.9,27-49.9
		c11.8-7.9,52.6-22.1,81.3-64c0,0,21.7,4.2,39.2-1.2c1.2,4,2.9,8.7,3.7,13.3c1,6.4-3.5,9-10.8,12.4c-7.3,3.4-5.4,11.6-5.4,11.6
		s3-1.5,13.4-3.7s11.1-14.5,10.3-23.8c-0.8-8.8,6.3-18.7,7.2-19.9c11.2-8.5,18-17.8,22.4-24.3c5.7-8.3,23.9-11.1,32.2-11.1
		c8.3,0,22-0.8,22-0.8l-0.5-8.6C750.5,147,734.1,139.5,730.3,134.9z"/>
	<g id="XMLID_214_">
		<path id="XMLID_215_" class="st1" d="M599.1,199c-9.2,7.5-17.7,11.3-29.2,13.1c-28.6,4.5-53.5-13.3-57.8-41.3
			c-4.3-27.7,13.9-52.8,41.4-57.1c13.2-2.1,26.4,0.8,37.1,8c10.2,6.9,17,17.3,18.7,28.4c2.3,15-2,25.3-11,27c-2.9,0.5-5.9,0.8-8-0.8
			l-0.4-0.3c-1-1.1-1.7-2.5-2-4.2c-0.2-1-0.3-2.7-0.2-4l0.6-35.2l-15.4-0.1l-0.3,7c-4.3-4.3-10.1-7.3-18.9-5.9
			c-14.9,2.3-26.3,18.5-23.5,36.4c2.4,15.2,14.2,23,27.1,20.9c8.3-1.3,13.9-6,17.6-10.6c3.8,3.2,10.4,6.2,20.7,4.6
			c0.2,0,0.3-0.1,0.4-0.1c0.2,0,0.4-0.1,0.7-0.1c16.2-2.5,23.7-15.8,20.5-35.9c-2-13-10.1-25.2-22.1-33.4
			c-12.4-8.5-27.6-11.8-42.8-9.5c-31.5,4.9-53,34.5-48.1,66c5,31.8,34.4,52.8,66.9,47.7c12.6-2,23-6.8,32.9-15.1
			c7.2-6.2,11.4-8.2,17.4-7.8C621.3,196.9,611.4,189.3,599.1,199z M559.6,177.3c-7,1.1-12.7-2.6-13.9-10.5
			c-1.6-10.2,4.2-19,12.5-20.3c6.9-1.1,12.6,2.9,13.7,10.1C573.5,167,567.6,176,559.6,177.3z"/>
	</g>
	<path id="XMLID_213_" class="st2" d="M716.1,145.5c0,0-1.8-3.4-1.6-6.1c0-0.3,0-0.6,0-0.9c0-0.3,0-0.7-0.1-1
		c-0.6-4.1-4.5-6.9-8.6-6.3c-0.2,0-0.4,0.1-0.5,0.1c-0.3,0-0.5,0.1-0.8,0.2c-2.6,0.9-6.3-0.1-6.3-0.1s0.2,0.9,0.5,2
		c0.3,1,0.7,4.7,0.8,5.6c0,0.3,0,0.6,0.1,0.8c0.6,4.1,4.5,6.9,8.6,6.3c0.2,0,0.3-0.1,0.5-0.1c1.1-0.2,4.5-0.6,5.4-0.6
		C715.3,145.5,716.1,145.5,716.1,145.5z"/>
	<circle id="XMLID_212_" cx="707.2" cy="138.7" r="5.8"/>
</g>
<g id="XMLID_28_">
	<path id="XMLID_208_" d="M175.6,400.2h13.8c2.3,7.4,6.1,13.2,11.3,17.3c5.3,4.2,11.5,6.2,18.7,6.2c4.3,0,7.8-0.9,10.4-2.8
		c2.6-1.8,3.9-4.2,3.9-7.2c0-4.6-5.7-8.5-17-11.6c-3.7-1-6.6-1.8-8.7-2.4c-6.8-2-12-3.8-15.7-5.2c-3.7-1.4-6.3-2.8-8-4
		c-3.9-2.9-6.7-6.1-8.6-9.6c-1.8-3.5-2.8-7.5-2.8-12c0-9.6,3.6-17.4,10.7-23.3c7.1-5.9,16.6-8.9,28.3-8.9c6,0,11.5,0.6,16.7,1.7
		c5.2,1.2,10.2,3,15,5.4l2.6-4.8h13.8v33.3h-16.1c-1.6-6.8-4.6-11.9-8.9-15.2c-4.4-3.3-10.2-5-17.5-5c-4.3,0-7.8,1-10.6,2.9
		c-2.8,2-4.2,4.4-4.2,7.2c0,4.3,5.3,7.5,15.9,9.7c2.6,0.6,4.6,1,6.1,1.3c14.8,3.4,25.2,7.6,31.1,12.7c6,5,8.9,11.9,8.9,20.6
		c0,9.7-3.7,17.4-11,23.1c-7.3,5.7-17.2,8.6-29.6,8.6c-5.7,0-11.1-0.6-16.4-1.9c-5.3-1.3-10.5-3.2-15.6-5.8l-3.6,5.3h-13.1V400.2z"
		/>
	<path id="XMLID_206_" d="M301.8,354.6c-5.3,0-9.3,1.8-12.1,5.3c-2.8,3.6-4.2,8.7-4.2,15.5v0.4h-14.2v-36.3h100.9v36.3h-14v-0.4
		c0-6.7-1.4-11.9-4.2-15.5c-2.8-3.6-6.9-5.4-12.2-5.4h-4.2v59.1c0,3.7,0.5,6,1.5,6.9c1,0.9,3.2,1.4,6.6,1.4h8v13.6h-63.1v-13.6h7.5
		c3.2,0,5.3-0.4,6.4-1.2c1-0.8,1.5-3.1,1.5-7.1v-59.1H301.8z"/>
	<path id="XMLID_203_" d="M416.4,435.5v-13.6h4.3c3.6,0,5.9-0.2,6.7-0.6c0.8-0.4,1.2-1.2,1.2-2.3c0-0.7-0.1-1.5-0.2-2.1
		s-0.3-1.3-0.5-2l-3.4-10.3h-25.8l-3,9.1c-0.5,1.4-0.9,2.5-1,3.3c-0.2,0.8-0.3,1.5-0.3,2.2c0,0.8,0.6,1.5,1.7,2
		c1.2,0.5,2.8,0.7,5,0.7h4.7v13.6h-42.9v-13.6h3.6c2.4,0,4.5-0.8,6.1-2.3c1.7-1.5,3.1-4,4.3-7.5l25.2-72.5h34.7l22.5,72.2
		c1.5,4.7,2.9,7.6,4.2,8.6c1.3,1,3.3,1.5,6.1,1.5h5v13.6H416.4z M420,390.9l-8.7-29l-8.2,29H420z"/>
	<path id="XMLID_200_" d="M483.3,413.7v-52.4c0-3.7-0.5-6-1.4-6.9c-0.9-0.9-3.1-1.3-6.5-1.3h-4.8v-13.5h66c11.7,0,20.4,2,26.1,5.9
		c5.7,4,8.6,9.9,8.6,17.9c0,5.4-1.8,9.9-5.3,13.6c-3.5,3.7-8.5,6.2-15,7.5c6.5,0.8,10.9,2.8,13.2,6c2.3,3.2,3.5,10.5,3.5,21.9
		c0,3.4,0.3,5.8,0.9,7.2c0.6,1.3,1.5,2,2.9,2c1.3,0,2.3-0.8,2.9-2.4c0.6-1.6,0.9-4.1,0.9-7.4c0-0.3,0-0.9-0.1-1.6
		c0-0.7-0.1-1.3-0.1-1.7h9.7c0,0.4,0,1.1,0.1,1.9c0,0.9,0.1,1.5,0.1,1.9c0,8.9-1.8,15.4-5.5,19.4c-3.7,4-9.6,6-17.8,6
		c-8.7,0-15-1.8-19-5.4c-4-3.6-6-9.4-6-17.3v-8c0-6.4-0.9-10.5-2.5-12.3c-1.7-1.7-5.2-2.6-10.6-2.6h-8.6v21.5c0,3.7,0.5,6,1.4,6.9
		c1,0.9,3.1,1.3,6.4,1.3h5.4v13.6h-57.7v-13.6h4.8c3.4,0,5.5-0.4,6.5-1.3C482.8,419.7,483.3,417.4,483.3,413.7z M514.8,379.2h8.4
		c5.9,0,10.1-0.9,12.5-2.8c2.4-1.9,3.6-5,3.6-9.5c0-4.8-1.1-8.2-3.3-10.2c-2.2-2-6.1-2.9-11.7-2.9h-9.4V379.2z"/>
	<path id="XMLID_198_" d="M612.8,354.6c-5.3,0-9.3,1.8-12.1,5.3c-2.8,3.6-4.2,8.7-4.2,15.5v0.4h-14.2v-36.3h100.9v36.3h-14v-0.4
		c0-6.7-1.4-11.9-4.2-15.5c-2.8-3.6-6.9-5.4-12.2-5.4h-4.2v59.1c0,3.7,0.5,6,1.5,6.9c1,0.9,3.2,1.4,6.6,1.4h8v13.6h-63.1v-13.6h7.5
		c3.2,0,5.3-0.4,6.4-1.2c1-0.8,1.5-3.1,1.5-7.1v-59.1H612.8z"/>
	<path id="XMLID_196_" class="st1" d="M720.8,354.6c-5.3,0-9.3,1.8-12.1,5.3c-2.8,3.6-4.2,8.7-4.2,15.5v0.4h-14.2v-36.3h100.9v36.3
		h-14v-0.4c0-6.7-1.4-11.9-4.2-15.5c-2.8-3.6-6.9-5.4-12.2-5.4h-4.2v59.1c0,3.7,0.5,6,1.5,6.9c1,0.9,3.2,1.4,6.6,1.4h8v13.6h-63.1
		v-13.6h7.5c3.2,0,5.3-0.4,6.4-1.2c1-0.8,1.5-3.1,1.5-7.1v-59.1H720.8z"/>
	<path id="XMLID_194_" class="st1" d="M854.2,339.6v13.5h-5.4c-3.2,0-5.2,0.4-6.2,1.1c-1,0.7-1.5,2.9-1.5,6.4v0.7v60.3h6.4
		c6,0,10.2-0.3,12.6-0.9c2.4-0.6,4.4-1.7,5.8-3.3c1.8-2,3.2-4.6,4.1-8c0.9-3.4,1.6-8,1.9-13.9h14.9v40h-90.3v-13.6h4.8
		c3.4,0,5.5-0.4,6.5-1.3c1-0.9,1.4-3.2,1.4-6.9v-52.4c0-3.7-0.5-6-1.4-6.9c-0.9-0.9-3.1-1.3-6.5-1.3h-4.8v-13.5H854.2z"/>
	<path id="XMLID_192_" class="st1" d="M896.1,400.2h13.8c2.3,7.4,6.1,13.2,11.3,17.3c5.3,4.2,11.5,6.2,18.7,6.2
		c4.3,0,7.8-0.9,10.4-2.8c2.6-1.8,3.9-4.2,3.9-7.2c0-4.6-5.7-8.5-17-11.6c-3.7-1-6.6-1.8-8.7-2.4c-6.8-2-12-3.8-15.7-5.2
		c-3.7-1.4-6.3-2.8-8-4c-3.9-2.9-6.7-6.1-8.6-9.6c-1.8-3.5-2.8-7.5-2.8-12c0-9.6,3.6-17.4,10.7-23.3c7.1-5.9,16.6-8.9,28.3-8.9
		c6,0,11.5,0.6,16.7,1.7c5.2,1.2,10.2,3,15,5.4l2.6-4.8h13.8v33.3h-16.1c-1.6-6.8-4.6-11.9-8.9-15.2c-4.4-3.3-10.2-5-17.5-5
		c-4.3,0-7.8,1-10.6,2.9c-2.8,2-4.2,4.4-4.2,7.2c0,4.3,5.3,7.5,15.9,9.7c2.6,0.6,4.6,1,6.1,1.3c14.8,3.4,25.2,7.6,31.1,12.7
		c6,5,8.9,11.9,8.9,20.6c0,9.7-3.7,17.4-11,23.1c-7.3,5.7-17.2,8.6-29.6,8.6c-5.7,0-11.1-0.6-16.4-1.9c-5.3-1.3-10.5-3.2-15.6-5.8
		l-3.6,5.3h-13.1V400.2z"/>
	<path id="XMLID_190_" d="M261.9,447.1v32.6H248c-0.9-4.2-1.8-7.6-2.8-9.9c-1-2.4-2.2-4.3-3.7-5.7c-1.7-1.7-3.7-2.8-6-3.5
		c-2.4-0.7-6.2-1.1-11.5-1.1h-2.6h-11.2v24h3.4c3.9,0,6.7-1,8.3-2.9c1.6-1.9,2.4-5.3,2.4-10.2v-0.8h11v39.9h-11
		c-0.2-6.1-1-10.1-2.4-11.9c-1.4-1.8-4.2-2.7-8.2-2.7h-3.5v27.2h15.5c6,0,10.1-0.4,12.4-1.1c2.3-0.7,4-2,5.3-3.7
		c1.4-2.1,2.4-4.6,3.2-7.6c0.8-3,1.3-6.8,1.6-11.3h14.4v36.1h-92.3v-12.4h4.4c2.9,0,4.8-0.3,5.7-1c0.9-0.7,1.4-2.6,1.4-5.9v-0.6
		v-47.7c0-3.4-0.4-5.5-1.3-6.3c-0.9-0.8-2.8-1.2-5.9-1.2h-4.3v-12.4H261.9z"/>
	<path id="XMLID_188_" d="M321.9,490.6c0.1-0.4,0.2-0.7,0.3-1.1s0.1-0.7,0.1-1c0-1.3-0.5-2.3-1.5-2.9c-1-0.6-2.8-1-5.2-1.2V473h30.1
		v11.5h-0.5c-2.6,0-4.6,0.5-6,1.6c-1.4,1-2.6,2.8-3.5,5.3l-14.7,43.2h-28.5l-13.9-43.9c-0.8-2.6-1.5-4.3-2.3-5
		c-0.8-0.7-2-1.1-3.7-1.1h-2.4V473h40.2v11.5h-1.8c-1.9,0-3.3,0.3-4,0.8c-0.8,0.5-1.2,1.4-1.2,2.7c0,0.3,0.1,0.7,0.2,1.2
		c0.1,0.4,0.2,0.9,0.4,1.4l9,27.6L321.9,490.6z"/>
	<path id="XMLID_117_" d="M415.1,513.1c-1.5,8-4.9,13.9-10.3,17.9c-5.4,3.9-12.8,5.9-22.3,5.9c-10.8,0-19.4-3-25.7-8.9
		c-6.3-5.9-9.4-14-9.4-24.2c0-10.1,3.2-18.2,9.5-24.2c6.3-6,14.8-9,25.4-9c10.5,0,18.5,3,24.2,8.9c5.6,6,8.4,14.5,8.4,25.6v2.2
		h-40.9v1.3c0,5.2,1.1,9.1,3.2,11.9c2.2,2.8,5.2,4.1,9.2,4.1c3.4,0,6.2-1,8.3-3c2.2-2,3.6-4.9,4.3-8.6H415.1z M373.9,496h18.9v-1
		c0-4.1-0.8-7.2-2.5-9.4c-1.7-2.2-4-3.3-7.1-3.3c-3,0-5.3,1.2-6.9,3.6C374.7,488.2,373.9,491.6,373.9,496z"/>
	<path id="XMLID_115_" d="M454.4,479c2.2-2.8,4.6-4.8,7.3-6.2c2.7-1.4,5.5-2,8.6-2c4.7,0,8.4,1.4,11.2,4.1c2.8,2.7,4.2,6.4,4.2,11
		c0,3.9-1.1,7.1-3.3,9.5c-2.2,2.4-5.2,3.6-8.8,3.6c-2.9,0-5.3-0.9-7.2-2.7c-1.9-1.8-2.9-4.1-2.9-6.8c0-1.9,0.5-3.5,1.4-4.9
		c0.9-1.4,2.4-2.6,4.3-3.6c-0.5-0.1-1-0.2-1.5-0.3c-0.5-0.1-0.9-0.1-1.3-0.1c-3.5,0-6.2,1.6-8.2,4.9c-2,3.2-3,7.7-3,13.4V517
		c0,2.5,0.4,4.2,1.2,4.9c0.8,0.8,2.5,1.2,5,1.2h4.1v11.5H421v-11.5h2.2c2.5,0,4.1-0.4,4.9-1.2c0.8-0.8,1.2-2.4,1.2-4.9v-26.4
		c0-2.5-0.4-4.2-1.2-5c-0.8-0.8-2.4-1.1-4.9-1.1H421V473h33.4V479z"/>
	<path id="XMLID_113_" d="M542.6,490.2c0.1-0.3,0.2-0.6,0.4-1.1c0.3-0.7,0.4-1.2,0.4-1.4c0-1.1-0.5-2-1.6-2.4
		c-1.1-0.5-3.2-0.8-6.3-0.9V473h31.4v11.5c-2.7,0-4.7,0.4-6.1,1.3c-1.4,0.9-2.7,2.7-3.9,5.6l-19.7,48.4c-3.1,7.7-7,13.4-11.8,17.2
		c-4.8,3.8-10.4,5.6-16.9,5.6c-6.4,0-11.4-1.6-15.2-4.7c-3.8-3.1-5.7-7.3-5.7-12.5c0-3.7,1.2-6.6,3.5-8.9c2.4-2.3,5.4-3.5,9.1-3.5
		c3.3,0,5.9,0.9,8,2.6c2.1,1.8,3.1,4,3.1,6.8c0,2.5-0.7,4.5-2.1,6c-1.4,1.6-3.4,2.6-6.1,3.2c0.6,0.8,1.3,1.3,2.1,1.7
		c0.8,0.4,1.7,0.5,2.6,0.5c2.5,0,5-1.1,7.4-3.3s4.6-5.3,6.5-9.4l-20.5-46.8c-0.1-0.2-0.2-0.4-0.4-0.8c-2.7-6-5.5-9-8.5-9h-2.4V473
		h40.2v11.5c-2.5,0-4.1,0.2-4.7,0.6c-0.6,0.3-0.9,1-0.9,1.8c0,0.6,0.2,1.4,0.6,2.4c0.1,0.3,0.2,0.6,0.3,0.8l8.8,21.6L542.6,490.2z"
		/>
	<path id="XMLID_106_" d="M613.3,534.5h-26.5l-10.4-40.7c-1.1-4.1-2.1-6.7-2.9-7.8c-0.8-1.1-2.1-1.6-3.8-1.6h-3V473h36.7v11.5h-1.2
		c-1.4,0-2.5,0.3-3.1,0.8c-0.6,0.5-0.9,1.4-0.9,2.7c0,0.4,0,0.9,0.1,1.3c0.1,0.4,0.2,0.9,0.3,1.3l7.1,28.3l8.3-28.3
		c0.1-0.4,0.2-0.8,0.3-1.2c0.1-0.4,0.1-0.7,0.1-1c0-1.1-0.4-2-1.1-2.6c-0.8-0.6-2.1-1-4.1-1.3V473h36.5v11.5h-1.1
		c-1.4,0-2.3,0.3-2.9,0.8c-0.6,0.5-0.9,1.4-0.9,2.7c0,0.4,0,0.9,0.1,1.3c0.1,0.4,0.2,0.9,0.3,1.3l6.9,27.6l8-27.6
		c0.1-0.3,0.1-0.6,0.2-1c0-0.3,0.1-0.8,0.1-1.3c0-1.1-0.4-2-1.1-2.6c-0.8-0.6-2.1-1-3.9-1.3V473h26.7v11.5c-2.6,0-4.6,0.5-6,1.5
		c-1.4,1-2.5,2.8-3.3,5.3l-13.3,43.2h-25.6l-7.5-29.9L613.3,534.5z"/>
	<path id="XMLID_87_" d="M757.1,517c0,2.5,0.4,4.2,1.2,4.9c0.8,0.8,2.5,1.2,5,1.2h1.5v11.5h-40.2v-11.5h1.5c2.2,0,3.6-0.4,4.3-1.1
		c0.7-0.8,1-2.4,1-5v-22.2c0-3.6-0.7-6.2-2.1-8c-1.4-1.7-3.5-2.6-6.3-2.6c-3,0-5.4,1.1-7.2,3.4c-1.8,2.3-2.6,5.3-2.6,9.1V517
		c0,2.5,0.4,4.1,1.1,4.9c0.8,0.8,2.2,1.2,4.5,1.2h1.3v11.5h-40.8v-11.5h2.2c2.5,0,4.1-0.4,4.9-1.2c0.8-0.8,1.2-2.4,1.2-4.9v-52.3
		c0-2.5-0.4-4.1-1.2-4.9c-0.8-0.8-2.4-1.2-4.9-1.2h-2.2v-11.5h33.9v35.2c2.9-3.8,6.1-6.6,9.7-8.3c3.6-1.7,7.8-2.6,12.6-2.6
		c7.9,0,13.4,1.7,16.6,5.1c3.2,3.4,4.9,9.3,4.9,17.7V517z"/>
	<path id="XMLID_78_" d="M837.3,513.1c-1.5,8-4.9,13.9-10.3,17.9c-5.4,3.9-12.8,5.9-22.3,5.9c-10.8,0-19.4-3-25.7-8.9
		c-6.3-5.9-9.4-14-9.4-24.2c0-10.1,3.2-18.2,9.5-24.2c6.3-6,14.8-9,25.4-9c10.5,0,18.5,3,24.2,8.9c5.6,6,8.4,14.5,8.4,25.6v2.2
		h-40.9v1.3c0,5.2,1.1,9.1,3.2,11.9c2.2,2.8,5.2,4.1,9.2,4.1c3.4,0,6.2-1,8.3-3c2.2-2,3.6-4.9,4.3-8.6H837.3z M796.2,496h18.9v-1
		c0-4.1-0.8-7.2-2.5-9.4c-1.7-2.2-4-3.3-7.1-3.3c-3,0-5.3,1.2-6.9,3.6C797,488.2,796.2,491.6,796.2,496z"/>
	<path id="XMLID_37_" d="M876.7,479c2.2-2.8,4.6-4.8,7.3-6.2c2.7-1.4,5.5-2,8.6-2c4.7,0,8.4,1.4,11.2,4.1c2.8,2.7,4.2,6.4,4.2,11
		c0,3.9-1.1,7.1-3.3,9.5c-2.2,2.4-5.2,3.6-8.8,3.6c-2.9,0-5.3-0.9-7.2-2.7c-1.9-1.8-2.9-4.1-2.9-6.8c0-1.9,0.5-3.5,1.4-4.9
		c0.9-1.4,2.4-2.6,4.3-3.6c-0.5-0.1-1-0.2-1.5-0.3c-0.5-0.1-0.9-0.1-1.3-0.1c-3.5,0-6.2,1.6-8.2,4.9c-2,3.2-3,7.7-3,13.4V517
		c0,2.5,0.4,4.2,1.2,4.9c0.8,0.8,2.5,1.2,5,1.2h4.1v11.5h-44.3v-11.5h2.2c2.5,0,4.1-0.4,4.9-1.2c0.8-0.8,1.2-2.4,1.2-4.9v-26.4
		c0-2.5-0.4-4.2-1.2-5c-0.8-0.8-2.4-1.1-4.9-1.1h-2.2V473h33.4V479z"/>
	<path id="XMLID_29_" d="M980.8,513.1c-1.5,8-4.9,13.9-10.3,17.9c-5.4,3.9-12.8,5.9-22.3,5.9c-10.8,0-19.4-3-25.7-8.9
		c-6.3-5.9-9.4-14-9.4-24.2c0-10.1,3.2-18.2,9.5-24.2c6.3-6,14.8-9,25.4-9c10.5,0,18.5,3,24.2,8.9c5.6,6,8.4,14.5,8.4,25.6v2.2
		h-40.9v1.3c0,5.2,1.1,9.1,3.2,11.9c2.2,2.8,5.2,4.1,9.2,4.1c3.4,0,6.2-1,8.3-3c2.2-2,3.6-4.9,4.3-8.6H980.8z M939.7,496h18.9v-1
		c0-4.1-0.8-7.2-2.5-9.4c-1.7-2.2-4-3.3-7.1-3.3c-3,0-5.3,1.2-6.9,3.6C940.5,488.2,939.7,491.6,939.7,496z"/>
</g>
<g id="XMLID_1_">
	<path id="XMLID_2_" class="st0" d="M566.3,554.3c1.9,1,3.4,2.4,4.7,4.4l-3.5,3.2c-0.8-1.7-1.8-3-3-3.8c-1.2-0.8-2.8-1.2-4.9-1.2
		c-2,0-3.5,0.4-4.6,1.2c-1.1,0.8-1.6,1.8-1.6,3.1c0,1.2,0.5,2.1,1.6,2.8c1.1,0.7,3,1.3,5.7,1.8c2.6,0.5,4.6,1,6.1,1.8
		c1.5,0.7,2.6,1.6,3.3,2.6c0.7,1.1,1,2.4,1,3.9c0,1.7-0.5,3.1-1.4,4.4c-1,1.3-2.3,2.2-4,2.9c-1.7,0.7-3.7,1-6,1
		c-5.8,0-9.9-1.9-12.3-5.8l3.2-3.2c0.9,1.7,2.1,3,3.6,3.8c1.5,0.8,3.3,1.2,5.4,1.2c2.1,0,3.7-0.4,4.8-1.1c1.2-0.7,1.8-1.7,1.8-3
		c0-1-0.5-1.9-1.6-2.5c-1.1-0.6-2.9-1.2-5.5-1.7c-2.6-0.5-4.7-1.1-6.3-1.8c-1.6-0.7-2.7-1.6-3.4-2.7c-0.7-1.1-1.1-2.4-1.1-3.9
		c0-1.6,0.4-3.1,1.3-4.4c0.9-1.3,2.2-2.4,3.9-3.2c1.7-0.8,3.7-1.2,5.9-1.2C562.2,552.8,564.4,553.3,566.3,554.3z"/>
	<path id="XMLID_4_" class="st0" d="M596.7,578.6l-0.3,3.1c-0.8,0.3-1.7,0.5-2.7,0.5c-1.2,0-2.2-0.2-3-0.7c-0.7-0.5-1.2-1.3-1.5-2.5
		c-0.7,1-1.6,1.8-2.9,2.4c-1.3,0.6-2.8,0.8-4.4,0.8c-2.1,0-3.8-0.5-5.1-1.5c-1.3-1-1.9-2.4-1.9-4.2c0-1.7,0.7-3.1,2.1-4.3
		c1.4-1.2,3.5-2,6.3-2.5l5.5-1v-1.2c0-1.3-0.4-2.4-1.2-3.1c-0.8-0.8-1.9-1.1-3.2-1.1c-2.9,0-4.7,1.3-5.6,3.9l-3.6-1.9
		c0.5-1.7,1.6-3.1,3.2-4.1c1.6-1,3.6-1.5,5.9-1.5c2.8,0,5,0.7,6.7,2c1.6,1.3,2.5,3.2,2.5,5.7v9.8c0,0.5,0.1,1,0.4,1.2
		c0.2,0.3,0.7,0.4,1.2,0.4C595.7,578.8,596.2,578.8,596.7,578.6z M587,577.6c1.2-0.8,1.8-1.7,1.8-3v-2.6l-4.7,1
		c-1.5,0.3-2.6,0.7-3.3,1.2c-0.7,0.5-1.1,1.2-1.1,2.1c0,0.8,0.3,1.4,0.8,1.8c0.6,0.4,1.4,0.6,2.4,0.6
		C584.5,578.8,585.8,578.4,587,577.6z"/>
	<path id="XMLID_7_" class="st0" d="M606.7,560.2h7v3.6h-6.9v18h-4.6v-18h-4.1v-3.6h4.1v-3.1c0-2.2,0.7-3.9,2-5.1
		c1.3-1.2,3.2-1.8,5.6-1.8c0.9,0,1.7,0.1,2.4,0.3s1.3,0.4,1.7,0.8l-0.9,3.4c-0.7-0.4-1.5-0.6-2.5-0.6c-2.5,0-3.8,1.2-3.8,3.5V560.2z
		"/>
	<path id="XMLID_9_" class="st0" d="M636.3,572.8h-15.9c0.3,1.9,0.9,3.4,2,4.4s2.5,1.5,4.2,1.5c1.4,0,2.6-0.3,3.5-0.8
		c0.9-0.5,1.6-1.2,1.9-2.2l3.9,1.6c-1.6,3.4-4.7,5-9.3,5c-3.4,0-6.1-1-8-3c-1.9-2-2.9-4.8-2.9-8.3c0-3.6,0.9-6.3,2.8-8.3
		c1.8-2,4.4-3,7.8-3c3.2,0,5.6,1,7.4,2.9c1.8,1.9,2.6,4.5,2.6,7.7C636.5,571.2,636.4,572,636.3,572.8z M622.4,564.9
		c-1,1-1.7,2.4-1.9,4.3h11.7c-0.2-1.8-0.8-3.2-1.8-4.2c-1-1-2.3-1.5-3.9-1.5C624.7,563.4,623.4,563.9,622.4,564.9z"/>
	<path id="XMLID_12_" class="st0" d="M655.5,560.2l-0.7,4.2c-0.7-0.4-1.6-0.6-2.7-0.6c-0.9,0-1.8,0.2-2.6,0.7s-1.5,1.2-2,2.2
		c-0.5,1-0.8,2.2-0.8,3.6v11.5H642v-21.7h3.9l0.4,3.9c1.2-2.9,3.5-4.3,6.8-4.3C654.2,559.8,655,559.9,655.5,560.2z"/>
	<path id="XMLID_14_" class="st0" d="M696.6,553.3v28.6h-4.7v-12.5h-14.1v12.5h-4.6v-28.6h4.6v12.1h14.1v-12.1H696.6z"/>
	<path id="XMLID_16_" class="st0" d="M721.2,562.7c1.9,2,2.9,4.8,2.9,8.3c0,3.5-1,6.3-2.9,8.3c-1.9,2-4.5,3-7.9,3c-3.4,0-6-1-7.9-3
		c-1.9-2-2.9-4.8-2.9-8.3c0-3.5,1-6.3,2.9-8.3c1.9-2,4.5-3,7.9-3C716.7,559.8,719.3,560.8,721.2,562.7z M708.8,565.4
		c-1.1,1.3-1.6,3.2-1.6,5.7s0.5,4.3,1.6,5.7c1.1,1.3,2.6,2,4.5,2s3.5-0.7,4.5-2c1.1-1.3,1.6-3.2,1.6-5.6s-0.5-4.3-1.6-5.6
		c-1.1-1.3-2.6-2-4.5-2S709.8,564.1,708.8,565.4z"/>
	<path id="XMLID_20_" class="st0" d="M748.4,562.7c1.7,2,2.6,4.7,2.6,8.3c0,3.5-0.9,6.3-2.6,8.3c-1.7,2-4,3-7,3c-1.6,0-3-0.3-4.2-1
		s-2.2-1.6-2.8-2.9v12.6h-4.6v-30.8h4.1l0.2,4c0.6-1.4,1.6-2.4,2.9-3.2c1.3-0.8,2.8-1.2,4.5-1.2
		C744.3,559.8,746.7,560.7,748.4,562.7z M744.7,576.5c1.1-1.3,1.6-3.2,1.6-5.5s-0.5-4.2-1.6-5.5c-1.1-1.3-2.5-2-4.4-2
		c-1.8,0-3.2,0.6-4.2,1.8c-1.1,1.2-1.6,2.8-1.8,4.9v1.6c0.1,2.1,0.7,3.7,1.8,4.9c1.1,1.2,2.5,1.8,4.2,1.8
		C742.2,578.5,743.7,577.9,744.7,576.5z"/>
	<path id="XMLID_23_" class="st0" d="M758.7,581.2c-1.7-0.8-3-1.9-3.8-3.4l3.1-2.7c0.5,1.2,1.4,2.2,2.6,2.7c1.2,0.6,2.5,0.9,4.2,0.9
		c1.5,0,2.6-0.2,3.4-0.7s1.2-1.1,1.2-1.9c0-0.7-0.4-1.2-1.1-1.7c-0.8-0.4-2.1-0.8-3.9-1.2c-3.2-0.6-5.5-1.4-6.8-2.4
		c-1.3-1-2-2.4-2-4.3c0-1.2,0.4-2.3,1.1-3.3s1.8-1.8,3.1-2.5c1.4-0.6,3-0.9,4.9-0.9c2.4,0,4.3,0.4,5.8,1.2c1.4,0.8,2.6,2,3.3,3.7
		l-3.3,2.4c-0.5-1.3-1.2-2.2-2.2-2.8c-0.9-0.6-2.1-0.9-3.6-0.9c-1.3,0-2.4,0.3-3.2,0.8c-0.9,0.5-1.3,1.1-1.3,1.8
		c0,0.8,0.4,1.4,1.1,1.9c0.8,0.5,2.2,0.9,4.2,1.3c3.1,0.5,5.2,1.3,6.5,2.3c1.3,1,1.9,2.4,1.9,4.2c0,1.9-0.8,3.5-2.5,4.7
		c-1.7,1.2-4,1.8-6.9,1.8C762.3,582.3,760.4,581.9,758.7,581.2z"/>
	<path id="XMLID_25_" class="st0" d="M798.5,560.2h7v3.6h-6.9v18H794v-18h-4.1v-3.6h4.1v-3.1c0-2.2,0.7-3.9,2-5.1
		c1.3-1.2,3.2-1.8,5.6-1.8c0.9,0,1.7,0.1,2.4,0.3c0.7,0.2,1.3,0.4,1.7,0.8l-0.9,3.4c-0.7-0.4-1.5-0.6-2.5-0.6
		c-2.5,0-3.8,1.2-3.8,3.5V560.2z"/>
	<path id="XMLID_27_" class="st0" d="M826.4,562.7c1.9,2,2.9,4.8,2.9,8.3c0,3.5-1,6.3-2.9,8.3c-1.9,2-4.5,3-7.9,3c-3.4,0-6-1-7.9-3
		c-1.9-2-2.9-4.8-2.9-8.3c0-3.5,1-6.3,2.9-8.3c1.9-2,4.5-3,7.9-3C821.8,559.8,824.5,560.8,826.4,562.7z M813.9,565.4
		c-1.1,1.3-1.6,3.2-1.6,5.7s0.5,4.3,1.6,5.7c1.1,1.3,2.6,2,4.5,2s3.5-0.7,4.5-2c1.1-1.3,1.6-3.2,1.6-5.6s-0.5-4.3-1.6-5.6
		c-1.1-1.3-2.6-2-4.5-2S815,564.1,813.9,565.4z"/>
	<path id="XMLID_32_" class="st0" d="M848.4,560.2l-0.7,4.2c-0.7-0.4-1.6-0.6-2.7-0.6c-0.9,0-1.8,0.2-2.6,0.7s-1.5,1.2-2,2.2
		c-0.5,1-0.8,2.2-0.8,3.6v11.5h-4.6v-21.7h3.9l0.4,3.9c1.2-2.9,3.5-4.3,6.8-4.3C847,559.8,847.8,559.9,848.4,560.2z"/>
	<path id="XMLID_35_" class="st0" d="M887.3,577.9v4H866v-28.6h20.7v4h-16.1v8.2h12.6v3.9h-12.6v8.5H887.3z"/>
	<path id="XMLID_39_" class="st0" d="M922.7,560.6c1.2,0.6,2.2,1.5,2.9,2.7c0.7,1.2,1.1,2.7,1.1,4.5v14h-4.6v-13.3
		c0-1.7-0.4-3-1.2-3.8c-0.8-0.8-1.9-1.2-3.2-1.2c-1.6,0-2.9,0.6-4,1.7s-1.6,2.7-1.6,4.8v11.8h-4.6v-13.3c0-1.7-0.4-3-1.2-3.8
		c-0.8-0.8-1.9-1.2-3.2-1.2c-0.9,0-1.8,0.2-2.7,0.7s-1.6,1.2-2.1,2.2c-0.5,1-0.8,2.3-0.8,3.8v11.5h-4.6v-21.7h4.1l0.2,3.6
		c0.7-1.3,1.7-2.3,2.9-3s2.6-1,4.1-1c1.6,0,3.1,0.4,4.4,1.1c1.3,0.7,2.3,1.8,2.9,3.2c0.7-1.4,1.7-2.5,3.1-3.2
		c1.4-0.7,2.8-1.1,4.4-1.1C920.2,559.8,921.5,560.1,922.7,560.6z"/>
	<path id="XMLID_41_" class="st0" d="M953.7,578.6l-0.3,3.1c-0.8,0.3-1.7,0.5-2.7,0.5c-1.2,0-2.2-0.2-3-0.7
		c-0.7-0.5-1.2-1.3-1.5-2.5c-0.7,1-1.6,1.8-2.9,2.4c-1.3,0.6-2.8,0.8-4.4,0.8c-2.1,0-3.8-0.5-5.1-1.5c-1.3-1-1.9-2.4-1.9-4.2
		c0-1.7,0.7-3.1,2.1-4.3c1.4-1.2,3.5-2,6.3-2.5l5.5-1v-1.2c0-1.3-0.4-2.4-1.2-3.1c-0.8-0.8-1.9-1.1-3.2-1.1c-2.9,0-4.7,1.3-5.6,3.9
		l-3.6-1.9c0.5-1.7,1.6-3.1,3.2-4.1c1.6-1,3.6-1.5,5.9-1.5c2.8,0,5,0.7,6.7,2c1.6,1.3,2.5,3.2,2.5,5.7v9.8c0,0.5,0.1,1,0.4,1.2
		s0.7,0.4,1.2,0.4C952.8,578.8,953.3,578.8,953.7,578.6z M944.1,577.6c1.2-0.8,1.8-1.7,1.8-3v-2.6l-4.7,1c-1.5,0.3-2.6,0.7-3.3,1.2
		s-1.1,1.2-1.1,2.1c0,0.8,0.3,1.4,0.8,1.8c0.6,0.4,1.4,0.6,2.4,0.6C941.6,578.8,942.9,578.4,944.1,577.6z"/>
	<path id="XMLID_44_" class="st0" d="M957.8,555.8c-0.5-0.5-0.8-1.2-0.8-2.1c0-0.9,0.3-1.6,0.8-2.1c0.5-0.5,1.3-0.7,2.3-0.7
		c1,0,1.7,0.2,2.3,0.7c0.5,0.5,0.8,1.2,0.8,2.1c0,0.9-0.3,1.6-0.8,2.1c-0.5,0.5-1.3,0.8-2.3,0.8
		C959.2,556.5,958.4,556.3,957.8,555.8z M962.4,581.9h-4.6v-21.7h4.6V581.9z"/>
	<path id="XMLID_47_" class="st0" d="M973.9,575.5c0,1.1,0.2,1.8,0.5,2.2c0.3,0.4,0.9,0.6,1.8,0.6c0.5,0,1,0,1.4-0.1
		s0.9-0.2,1.5-0.5l-0.5,3.7c-1,0.5-2.2,0.7-3.6,0.7c-1.9,0-3.4-0.5-4.3-1.5c-0.9-1-1.4-2.5-1.4-4.6v-25.7h4.6V575.5z"/>
	<path id="XMLID_49_" class="st0" d="M987.5,576.8c0.6,0.6,0.9,1.3,0.9,2.3s-0.3,1.7-0.9,2.3c-0.6,0.6-1.4,0.9-2.4,0.9
		c-1,0-1.8-0.3-2.4-0.9c-0.6-0.6-0.9-1.3-0.9-2.3s0.3-1.7,0.9-2.3c0.6-0.6,1.4-0.8,2.4-0.8C986.2,576,987,576.3,987.5,576.8z"/>
</g>
</svg>
