<?xml version="1.0" encoding="utf-8"?>
<!-- Generator: Adobe Illustrator 19.0.0, SVG Export Plug-In . SVG Version: 6.00 Build 0)  -->
<svg version="1.1" id="Layer_1" xmlns="http://www.w3.org/2000/svg" xmlns:xlink="http://www.w3.org/1999/xlink" x="0px" y="0px"
	 viewBox="0 0 1200 600" style="enable-background:new 0 0 1200 600;" xml:space="preserve">
<style type="text/css">
	.st0{fill:#F42AAC;}
	.st1{fill:#2FEFF4;}
	.st2{fill:#20C9C9;}
	.st3{font-family:'WorkSans-Medium';}
	.st4{font-size:40.9372px;}
</style>
<g id="XMLID_121_">
	<path id="XMLID_128_" d="M439.7,160.4c-4.1-5-9.2-10.4-11.8-12.3c-2.7-1.9-6.3-8.7-3.1-13.9c3.2-5.2,7.9-11.6,4-19.5
		s-4.3-11.1-4.3-11.1s-1.1,6.5-3.3,12.3c-2.2,5.8-3.8,11.7-4.5,18.2c-0.6,6.5-3.5,8.1-7,9.4c-3.6,1.3-9,0-12.5-7.3
		c-3.5-7.2-12.1-13.7-27-17c0,0,3.2,17.2,13.4,22.2c10.2,5,13.4,8.5,13.5,12.5c0.5,12.6-19.6,25.7-39.7,14.7s-55.2-59.8-120.5-48.7
		C171.6,131,128.6,233.1,114.4,284.4c-14.2,51.3-44.2,76.8-90.3,81.2c0,0,35.4,11.9,66.6-9c31.2-20.9,47-55.5,55.5-76.7
		c8.5-21.2,26.8-49,46.3-57.3c0,0,3.2,14.6,12.5,22.6c9.3,8,9.9,32.9-0.9,45.5c-10.8,12.5-26,32.9-26,32.9s5.4,46.4,7.7,61.6
		c2.4,15.2-4.1,37.5-13.8,41.8c0,0,1.7,4.9,6.8,4.1c0,0-3.7,6.3-3.1,10.4s-1.6,11.1-4.6,13c0,0,8.8,4.8,15.4-7.1
		c6.6-11.9,17.7-37.7,17.7-37.7s-3-34.5-5.7-51.5c-2.7-17.1,16.5-45.5,29.3-54.2c12.8-8.6,57.2-24,88.3-69.5c0,0,23.6,4.5,42.6-1.3
		c1.3,4.3,3.2,9.5,4,14.4c1.1,6.9-3.8,9.8-11.7,13.5c-7.9,3.7-5.8,12.6-5.8,12.6s3.3-1.6,14.6-4.1c11.3-2.5,12.1-15.7,11.2-25.8
		c-0.8-9.5,6.9-20.3,7.8-21.6c12.2-9.2,19.6-19.4,24.3-26.3c6.2-9,26-12.1,34.9-12.1c9,0,23.9-0.9,23.9-0.9l-0.5-9.4
		C461.6,173.5,443.8,165.4,439.7,160.4z"/>
	<g id="XMLID_124_">
		<path id="XMLID_125_" class="st0" d="M297.2,230c-10,8.2-19.2,12.3-31.8,14.3c-31.1,4.9-58.1-14.4-62.8-44.9
			c-4.7-30.1,15.1-57.3,45-62c14.4-2.2,28.7,0.8,40.3,8.7c11,7.5,18.4,18.7,20.3,30.8c2.5,16.3-2.2,27.5-12,29.4
			c-3.1,0.6-6.4,0.9-8.7-0.9l-0.4-0.3c-1.1-1.2-1.8-2.7-2.1-4.5c-0.2-1.1-0.3-2.9-0.3-4.4l0.7-38.2l-16.7-0.1l-0.4,7.6
			c-4.7-4.6-11-7.9-20.6-6.4c-16.2,2.5-28.6,20.1-25.6,39.5c2.6,16.5,15.4,24.9,29.5,22.7c9-1.4,15.1-6.5,19.2-11.5
			c4.1,3.5,11.3,6.7,22.5,5c0.2,0,0.3-0.1,0.5-0.1c0.2,0,0.5-0.1,0.7-0.1c17.6-2.7,25.7-17.1,22.3-39c-2.2-14.2-11-27.4-24-36.2
			c-13.5-9.2-30-12.8-46.5-10.3c-34.2,5.3-57.6,37.5-52.3,71.6c5.4,34.6,37.3,57.3,72.7,51.8c13.7-2.1,25-7.4,35.7-16.4
			c7.8-6.7,12.4-8.9,18.9-8.5C321.3,227.7,310.5,219.4,297.2,230z M254.3,206.4c-7.6,1.2-13.8-2.8-15.1-11.4
			c-1.7-11.1,4.6-20.7,13.5-22.1c7.5-1.2,13.7,3.1,14.9,11C269.4,195.2,263,205,254.3,206.4z"/>
	</g>
	<path id="XMLID_123_" class="st1" d="M424.3,171.9c0,0-2-3.7-1.7-6.6c0-0.4,0-0.7,0-1c0-0.4,0-0.7-0.1-1.1
		c-0.7-4.5-4.9-7.5-9.3-6.8c-0.2,0-0.4,0.1-0.6,0.1c-0.3,0-0.6,0.1-0.9,0.2c-2.8,1-6.8-0.1-6.8-0.1s0.2,0.9,0.6,2.1
		c0.3,1,0.7,5.1,0.8,6.1c0,0.3,0,0.6,0.1,0.9c0.7,4.5,4.9,7.5,9.3,6.8c0.2,0,0.4-0.1,0.5-0.1c1.1-0.2,4.9-0.7,5.9-0.6
		C423.3,171.9,424.3,171.9,424.3,171.9z"/>
	<circle id="XMLID_122_" cx="414.6" cy="164.5" r="6.3"/>
</g>
<g id="XMLID_144_">
	<path id="XMLID_147_" d="M413.8,265.5h13.1c2.2,7,5.7,12.5,10.7,16.4c5,3.9,10.9,5.9,17.6,5.9c4.1,0,7.4-0.9,9.8-2.6
		c2.5-1.7,3.7-4,3.7-6.8c0-4.4-5.3-8-16-11c-3.5-0.9-6.2-1.7-8.2-2.3c-6.4-1.9-11.4-3.6-14.8-4.9c-3.5-1.4-6-2.6-7.5-3.8
		c-3.6-2.7-6.3-5.7-8.1-9.1c-1.7-3.3-2.6-7.1-2.6-11.3c0-9.1,3.4-16.4,10.1-22c6.8-5.6,15.7-8.4,26.7-8.4c5.6,0,10.9,0.6,15.8,1.6
		c4.9,1.1,9.6,2.8,14.2,5.1l2.4-4.6h13v31.5h-15.2c-1.5-6.4-4.3-11.2-8.4-14.3s-9.7-4.7-16.6-4.7c-4,0-7.4,0.9-10,2.8
		c-2.6,1.8-3.9,4.1-3.9,6.8c0,4,5,7.1,15,9.2c2.5,0.5,4.4,0.9,5.7,1.3c14,3.2,23.8,7.2,29.4,12c5.6,4.8,8.4,11.3,8.4,19.5
		c0,9.1-3.5,16.4-10.4,21.9c-6.9,5.4-16.3,8.1-28,8.1c-5.4,0-10.5-0.6-15.5-1.8c-5-1.2-9.9-3-14.8-5.5l-3.4,5h-12.4V265.5z"/>
	<path id="XMLID_149_" d="M533.1,222.4c-5,0-8.8,1.7-11.4,5c-2.6,3.4-4,8.3-4,14.7v0.4h-13.4v-34.3h95.4v34.3h-13.3v-0.4
		c0-6.4-1.3-11.3-4-14.6c-2.7-3.4-6.5-5.1-11.5-5.1h-4v55.8c0,3.5,0.5,5.6,1.4,6.5c0.9,0.9,3,1.3,6.2,1.3h7.6v12.9h-59.6V286h7.1
		c3,0,5-0.4,6-1.1c1-0.7,1.5-3,1.5-6.7v-55.8H533.1z"/>
	<path id="XMLID_151_" d="M641.3,298.9V286h4.1c3.4,0,5.5-0.2,6.3-0.6c0.8-0.4,1.2-1.1,1.2-2.1c0-0.7-0.1-1.4-0.2-2
		c-0.1-0.6-0.3-1.3-0.4-1.9l-3.2-9.7h-24.4l-2.8,8.6c-0.5,1.3-0.8,2.4-1,3.1c-0.2,0.7-0.3,1.4-0.3,2c0,0.8,0.5,1.4,1.6,1.8
		c1.1,0.4,2.7,0.7,4.7,0.7h4.5v12.9h-40.5V286h3.4c2.3,0,4.2-0.7,5.8-2.2c1.6-1.5,2.9-3.8,4.1-7.1l23.8-68.5h32.8l21.2,68.2
		c1.5,4.5,2.8,7.2,4,8.1c1.2,0.9,3.1,1.4,5.7,1.4h4.7v12.9H641.3z M644.7,256.7l-8.2-27.4l-7.7,27.4H644.7z"/>
	<path id="XMLID_154_" d="M704.6,278.2v-49.5c0-3.5-0.4-5.7-1.3-6.5c-0.9-0.8-2.9-1.2-6.1-1.2h-4.6v-12.8H755
		c11,0,19.3,1.9,24.7,5.6c5.4,3.7,8.1,9.4,8.1,17c0,5.1-1.7,9.4-5,12.9c-3.3,3.5-8.1,5.8-14.2,7.1c6.2,0.7,10.3,2.6,12.5,5.6
		c2.2,3,3.3,9.9,3.3,20.7c0,3.3,0.3,5.5,0.8,6.8c0.6,1.3,1.5,1.9,2.7,1.9c1.2,0,2.1-0.8,2.7-2.3c0.6-1.5,0.9-3.9,0.9-7
		c0-0.3,0-0.8-0.1-1.5c0-0.7-0.1-1.2-0.1-1.6h9.2c0,0.4,0,1,0.1,1.8c0,0.8,0.1,1.4,0.1,1.8c0,8.4-1.7,14.6-5.2,18.4
		c-3.5,3.8-9.1,5.7-16.8,5.7c-8.2,0-14.2-1.7-18-5.1c-3.8-3.4-5.6-8.9-5.6-16.4V272c0-6.1-0.8-9.9-2.4-11.6c-1.6-1.6-4.9-2.5-10-2.5
		h-8.1v20.3c0,3.5,0.4,5.7,1.4,6.5c0.9,0.8,2.9,1.3,6,1.3h5.1v12.9h-54.6V286h4.6c3.2,0,5.2-0.4,6.1-1.3
		C704.1,283.9,704.6,281.7,704.6,278.2z M734.3,245.6h7.9c5.6,0,9.5-0.9,11.8-2.7c2.3-1.8,3.4-4.8,3.4-8.9c0-4.6-1-7.8-3.1-9.6
		c-2.1-1.8-5.8-2.8-11-2.8h-8.9V245.6z"/>
	<path id="XMLID_157_" d="M826.9,222.4c-5,0-8.8,1.7-11.4,5c-2.6,3.4-4,8.3-4,14.7v0.4h-13.4v-34.3h95.4v34.3h-13.3v-0.4
		c0-6.4-1.3-11.3-4-14.6c-2.7-3.4-6.5-5.1-11.5-5.1h-4v55.8c0,3.5,0.5,5.6,1.4,6.5c0.9,0.9,3,1.3,6.2,1.3h7.6v12.9h-59.6V286h7.1
		c3,0,5-0.4,6-1.1s1.5-3,1.5-6.7v-55.8H826.9z"/>
	<path id="XMLID_159_" class="st0" d="M928.9,222.4c-5,0-8.8,1.7-11.4,5c-2.6,3.4-4,8.3-4,14.7v0.4h-13.4v-34.3h95.4v34.3h-13.3
		v-0.4c0-6.4-1.3-11.3-4-14.6c-2.7-3.4-6.5-5.1-11.5-5.1h-4v55.8c0,3.5,0.5,5.6,1.4,6.5c0.9,0.9,3,1.3,6.2,1.3h7.6v12.9h-59.6V286
		h7.1c3,0,5-0.4,6-1.1c1-0.7,1.5-3,1.5-6.7v-55.8H928.9z"/>
	<path id="XMLID_161_" class="st0" d="M1055,208.2V221h-5.1c-3,0-4.9,0.4-5.9,1.1c-0.9,0.7-1.4,2.7-1.4,6v0.7v57h6.1
		c5.6,0,9.6-0.3,11.9-0.9c2.3-0.6,4.1-1.6,5.5-3.1c1.7-1.8,3-4.4,3.9-7.5c0.9-3.2,1.5-7.5,1.8-13.1h14.1v37.8h-85.4V286h4.6
		c3.2,0,5.2-0.4,6.1-1.3c0.9-0.8,1.4-3,1.4-6.5v-49.5c0-3.5-0.4-5.7-1.3-6.5c-0.9-0.8-2.9-1.2-6.1-1.2h-4.6v-12.8H1055z"/>
	<path id="XMLID_163_" class="st0" d="M1094.6,265.5h13.1c2.2,7,5.7,12.5,10.7,16.4c5,3.9,10.9,5.9,17.6,5.9c4.1,0,7.4-0.9,9.8-2.6
		c2.5-1.7,3.7-4,3.7-6.8c0-4.4-5.3-8-16-11c-3.5-0.9-6.2-1.7-8.2-2.3c-6.4-1.9-11.4-3.6-14.8-4.9c-3.5-1.4-6-2.6-7.5-3.8
		c-3.6-2.7-6.3-5.7-8.1-9.1c-1.7-3.3-2.6-7.1-2.6-11.3c0-9.1,3.4-16.4,10.1-22c6.8-5.6,15.7-8.4,26.7-8.4c5.6,0,10.9,0.6,15.8,1.6
		c4.9,1.1,9.6,2.8,14.2,5.1l2.4-4.6h13v31.5h-15.2c-1.5-6.4-4.3-11.2-8.4-14.3s-9.7-4.7-16.6-4.7c-4,0-7.4,0.9-10,2.8
		c-2.6,1.8-3.9,4.1-3.9,6.8c0,4,5,7.1,15,9.2c2.5,0.5,4.4,0.9,5.7,1.3c14,3.2,23.8,7.2,29.4,12c5.6,4.8,8.4,11.3,8.4,19.5
		c0,9.1-3.5,16.4-10.4,21.9c-6.9,5.4-16.3,8.1-28,8.1c-5.4,0-10.5-0.6-15.5-1.8c-5-1.2-9.9-3-14.8-5.5l-3.4,5h-12.4V265.5z"/>
	<path id="XMLID_165_" d="M495.3,309.8v30.8h-13.1c-0.8-4-1.7-7.1-2.7-9.4c-0.9-2.2-2.1-4.1-3.5-5.4c-1.6-1.6-3.5-2.7-5.7-3.3
		c-2.2-0.7-5.9-1-10.9-1H457h-10.6v22.7h3.2c3.7,0,6.3-0.9,7.9-2.7c1.5-1.8,2.3-5,2.3-9.6v-0.7h10.3v37.7h-10.3
		c-0.2-5.8-0.9-9.5-2.3-11.2c-1.3-1.7-3.9-2.6-7.7-2.6h-3.3v25.7H461c5.7,0,9.6-0.3,11.7-1s3.8-1.8,5-3.5c1.3-2,2.3-4.4,3-7.2
		c0.7-2.8,1.2-6.4,1.5-10.7h13.6v34.1h-87.2v-11.7h4.2c2.7,0,4.5-0.3,5.4-1c0.9-0.6,1.3-2.5,1.3-5.5v-0.6v-45.1
		c0-3.2-0.4-5.2-1.2-5.9c-0.8-0.7-2.7-1.1-5.6-1.1h-4v-11.7H495.3z"/>
	<path id="XMLID_167_" d="M552.1,350.9c0.1-0.4,0.2-0.7,0.3-1c0.1-0.3,0.1-0.6,0.1-1c0-1.2-0.5-2.2-1.4-2.7c-1-0.6-2.6-1-4.9-1.1
		v-10.8h28.5v10.9H574c-2.4,0-4.4,0.5-5.7,1.5c-1.4,1-2.5,2.7-3.3,5l-13.9,40.8h-26.9L511,350.9c-0.7-2.5-1.5-4.1-2.2-4.8
		c-0.7-0.7-1.9-1-3.5-1h-2.2v-10.9h38v10.9h-1.7c-1.8,0-3.1,0.2-3.8,0.7c-0.7,0.5-1.1,1.3-1.1,2.6c0,0.3,0,0.7,0.2,1.1
		c0.1,0.4,0.2,0.9,0.4,1.4l8.5,26.1L552.1,350.9z"/>
	<path id="XMLID_169_" d="M640.1,372.2c-1.4,7.5-4.7,13.2-9.7,16.9c-5.1,3.7-12.1,5.6-21.1,5.6c-10.2,0-18.3-2.8-24.2-8.4
		c-5.9-5.6-8.9-13.2-8.9-22.9c0-9.5,3-17.2,8.9-22.8c6-5.7,13.9-8.5,24-8.5c9.9,0,17.5,2.8,22.8,8.5c5.3,5.6,8,13.7,8,24.2v2.1
		h-38.7v1.2c0,4.9,1,8.6,3.1,11.3c2,2.6,5,3.9,8.7,3.9c3.2,0,5.8-0.9,7.9-2.8c2-1.9,3.4-4.6,4.1-8.1H640.1z M601.1,356H619v-0.9
		c0-3.8-0.8-6.8-2.3-8.9c-1.6-2.1-3.8-3.1-6.7-3.1c-2.8,0-5,1.1-6.5,3.4C601.9,348.7,601.1,351.9,601.1,356z"/>
	<path id="XMLID_172_" d="M677.2,340c2.1-2.6,4.4-4.6,6.9-5.8c2.5-1.3,5.2-1.9,8.1-1.9c4.4,0,7.9,1.3,10.6,3.9c2.6,2.6,4,6,4,10.4
		c0,3.7-1.1,6.7-3.2,9c-2.1,2.2-4.9,3.4-8.3,3.4c-2.7,0-5-0.9-6.8-2.6c-1.8-1.7-2.7-3.9-2.7-6.4c0-1.8,0.4-3.3,1.3-4.6
		c0.9-1.3,2.2-2.4,4-3.4c-0.5-0.1-0.9-0.2-1.4-0.3c-0.4-0.1-0.9-0.1-1.3-0.1c-3.3,0-5.9,1.5-7.8,4.6c-1.9,3.1-2.9,7.3-2.9,12.7v17.1
		c0,2.4,0.4,3.9,1.1,4.7c0.8,0.7,2.3,1.1,4.7,1.1h3.9v10.8h-41.9v-10.8h2.1c2.4,0,3.9-0.4,4.7-1.1c0.7-0.7,1.1-2.3,1.1-4.7v-24.9
		c0-2.4-0.4-4-1.1-4.7c-0.7-0.7-2.3-1.1-4.7-1.1h-2.1v-10.9h31.5V340z"/>
	<path id="XMLID_174_" d="M760.6,350.6c0.1-0.2,0.2-0.6,0.4-1c0.3-0.7,0.4-1.1,0.4-1.3c0-1.1-0.5-1.8-1.5-2.3c-1-0.4-3-0.7-6-0.8
		v-10.8h29.7v10.9c-2.5,0-4.5,0.4-5.8,1.2c-1.3,0.8-2.6,2.6-3.7,5.3l-18.6,45.7c-2.9,7.3-6.6,12.7-11.1,16.2
		c-4.5,3.6-9.8,5.3-15.9,5.3c-6,0-10.8-1.5-14.4-4.4c-3.6-2.9-5.4-6.9-5.4-11.8c0-3.5,1.1-6.3,3.3-8.5c2.2-2.2,5.1-3.3,8.6-3.3
		c3.1,0,5.6,0.8,7.5,2.5c1.9,1.7,2.9,3.8,2.9,6.4c0,2.3-0.7,4.2-2,5.7c-1.3,1.5-3.2,2.5-5.8,3c0.6,0.7,1.3,1.3,2,1.6
		s1.6,0.5,2.5,0.5c2.4,0,4.7-1,7-3.1c2.3-2.1,4.3-5,6.1-8.9l-19.4-44.2c-0.1-0.2-0.2-0.4-0.4-0.8c-2.5-5.7-5.2-8.5-8-8.5H711v-10.9
		h38v10.9c-2.4,0-3.9,0.2-4.5,0.5c-0.6,0.3-0.8,0.9-0.8,1.7c0,0.6,0.2,1.4,0.5,2.3c0.1,0.3,0.2,0.5,0.3,0.7l8.4,20.5L760.6,350.6z"
		/>
	<path id="XMLID_176_" d="M827.4,392.4h-25.1l-9.9-38.4c-1-3.9-2-6.3-2.7-7.3c-0.8-1-2-1.5-3.6-1.5h-2.8v-10.9H818v10.9h-1.1
		c-1.4,0-2.3,0.2-2.9,0.8c-0.6,0.5-0.9,1.4-0.9,2.6c0,0.4,0,0.8,0.1,1.2s0.2,0.8,0.3,1.2l6.7,26.7l7.9-26.8c0.1-0.4,0.2-0.8,0.3-1.1
		c0.1-0.4,0.1-0.7,0.1-0.9c0-1.1-0.4-1.9-1.1-2.5c-0.7-0.6-2-1-3.8-1.2v-10.9h34.5v10.9h-1.1c-1.3,0-2.2,0.2-2.7,0.8
		c-0.5,0.5-0.8,1.4-0.8,2.6c0,0.4,0,0.8,0.1,1.2c0.1,0.4,0.2,0.8,0.3,1.2l6.5,26.1l7.5-26.1c0.1-0.3,0.1-0.6,0.2-0.9
		c0-0.3,0.1-0.7,0.1-1.2c0-1.1-0.4-1.9-1.1-2.5c-0.7-0.6-2-1-3.7-1.2v-10.9h25.3v10.9c-2.4,0-4.3,0.5-5.6,1.4
		c-1.3,1-2.3,2.6-3.1,5.1L867,392.4h-24.2l-7.1-28.2L827.4,392.4z"/>
	<path id="XMLID_178_" d="M963.3,375.8c0,2.4,0.4,3.9,1.1,4.7c0.8,0.7,2.3,1.1,4.7,1.1h1.4v10.8h-38v-10.8h1.4c2,0,3.4-0.4,4.1-1.1
		c0.7-0.7,1-2.3,1-4.7v-21c0-3.4-0.7-5.9-2-7.5c-1.3-1.6-3.3-2.5-5.9-2.5c-2.8,0-5.1,1.1-6.8,3.2c-1.7,2.1-2.5,5-2.5,8.6v19.1
		c0,2.3,0.4,3.9,1.1,4.6c0.7,0.8,2.1,1.1,4.2,1.1h1.3v10.8h-38.6v-10.8h2.1c2.3,0,3.9-0.4,4.6-1.1c0.8-0.7,1.1-2.3,1.1-4.7v-49.4
		c0-2.4-0.4-3.9-1.1-4.7c-0.8-0.7-2.3-1.1-4.6-1.1h-2.1v-10.8h32v33.3c2.7-3.6,5.8-6.2,9.2-7.9c3.4-1.6,7.3-2.5,11.9-2.5
		c7.4,0,12.7,1.6,15.7,4.8c3.1,3.2,4.6,8.8,4.6,16.7V375.8z"/>
	<path id="XMLID_180_" d="M1039.1,372.2c-1.4,7.5-4.7,13.2-9.7,16.9c-5.1,3.7-12.1,5.6-21.1,5.6c-10.2,0-18.3-2.8-24.2-8.4
		c-5.9-5.6-8.9-13.2-8.9-22.9c0-9.5,3-17.2,8.9-22.8c6-5.7,13.9-8.5,24-8.5c9.9,0,17.5,2.8,22.8,8.5c5.3,5.6,8,13.7,8,24.2v2.1
		h-38.7v1.2c0,4.9,1,8.6,3.1,11.3c2,2.6,5,3.9,8.7,3.9c3.2,0,5.8-0.9,7.9-2.8c2-1.9,3.4-4.6,4.1-8.1H1039.1z M1000.2,356h17.9v-0.9
		c0-3.8-0.8-6.8-2.3-8.9c-1.6-2.1-3.8-3.1-6.7-3.1c-2.8,0-5,1.1-6.5,3.4C1000.9,348.7,1000.2,351.9,1000.2,356z"/>
	<path id="XMLID_183_" d="M1076.3,340c2.1-2.6,4.4-4.6,6.9-5.8c2.5-1.3,5.2-1.9,8.1-1.9c4.4,0,7.9,1.3,10.6,3.9c2.6,2.6,4,6,4,10.4
		c0,3.7-1.1,6.7-3.2,9s-4.9,3.4-8.3,3.4c-2.7,0-5-0.9-6.8-2.6c-1.8-1.7-2.7-3.9-2.7-6.4c0-1.8,0.4-3.3,1.3-4.6
		c0.9-1.3,2.2-2.4,4-3.4c-0.5-0.1-0.9-0.2-1.4-0.3c-0.4-0.1-0.9-0.1-1.3-0.1c-3.3,0-5.9,1.5-7.8,4.6c-1.9,3.1-2.9,7.3-2.9,12.7v17.1
		c0,2.4,0.4,3.9,1.1,4.7c0.8,0.7,2.3,1.1,4.7,1.1h3.9v10.8h-41.9v-10.8h2.1c2.4,0,3.9-0.4,4.7-1.1c0.7-0.7,1.1-2.3,1.1-4.7v-24.9
		c0-2.4-0.4-4-1.1-4.7c-0.7-0.7-2.3-1.1-4.7-1.1h-2.1v-10.9h31.5V340z"/>
	<path id="XMLID_185_" d="M1174.7,372.2c-1.4,7.5-4.7,13.2-9.7,16.9c-5.1,3.7-12.1,5.6-21.1,5.6c-10.2,0-18.3-2.8-24.2-8.4
		c-5.9-5.6-8.9-13.2-8.9-22.9c0-9.5,3-17.2,8.9-22.8c6-5.7,13.9-8.5,24-8.5c9.9,0,17.5,2.8,22.8,8.5c5.3,5.6,8,13.7,8,24.2v2.1
		h-38.7v1.2c0,4.9,1,8.6,3.1,11.3c2,2.6,5,3.9,8.7,3.9c3.2,0,5.8-0.9,7.9-2.8c2-1.9,3.4-4.6,4.1-8.1H1174.7z M1135.8,356h17.9v-0.9
		c0-3.8-0.8-6.8-2.3-8.9c-1.6-2.1-3.8-3.1-6.7-3.1c-2.8,0-5,1.1-6.5,3.4C1136.5,348.7,1135.8,351.9,1135.8,356z"/>
</g>
<text id="XMLID_120_" transform="matrix(1 0 0 1 763.4016 437.1547)" class="st2 st3 st4">Safer Hops for Email.</text>
</svg>
