<?xml version="1.0" encoding="utf-8"?>
<!-- Generator: Adobe Illustrator 19.0.0, SVG Export Plug-In . SVG Version: 6.00 Build 0)  -->
<svg version="1.1" id="Layer_1" xmlns="http://www.w3.org/2000/svg" xmlns:xlink="http://www.w3.org/1999/xlink" x="0px" y="0px"
	 viewBox="0 0 100 100" style="enable-background:new 0 0 100 100;" xml:space="preserve">
<style type="text/css">
	.st0{fill:#20C9C9;}
</style>
<circle id="XMLID_10_" class="st0" cx="49.8" cy="50.2" r="49.8"/>
<path id="XMLID_8_" d="M35.5,72.3c3.1-2.1,13.6-5.7,21.1-16.6c0,0,5.6,1.1,10.2-0.3c0.3,1,0.8,2.3,0.9,3.4c0.3,1.7-0.9,2.3-2.8,3.2
	c-1.9,0.9-1.4,3-1.4,3s0.8-0.4,3.5-1c2.7-0.6,2.9-3.7,2.7-6.2c-0.2-2.3,1.6-4.9,1.9-5.2c2.9-2.2,4.7-4.6,5.8-6.3
	c1.5-2.1,6.2-2.9,8.3-2.9c2.1,0,5.7-0.2,5.7-0.2l-0.1-2.2c0,0-4.2-1.9-5.2-3.1c-1-1.2-2.2-2.5-2.8-2.9c-0.6-0.5-1.5-2.1-0.7-3.3
	c0.8-1.2,1.9-2.8,1-4.7c-0.9-1.9-1-2.7-1-2.7s-0.3,1.6-0.8,2.9c-0.5,1.4-0.9,2.8-1.1,4.3c-0.2,1.5-0.8,1.9-1.7,2.2
	c-0.9,0.3-2.1,0-3-1.7c-0.8-1.7-2.9-3.3-6.4-4.1c0,0,0.8,4.1,3.2,5.3c2.4,1.2,3.2,2,3.2,3c0.1,3-4.7,6.1-9.5,3.5
	c-4.8-2.6-13.2-14.3-28.8-11.6C22.1,31,11.8,55.3,8.4,67.6C7.8,70,6.9,72,6,73.9c0.9,1.7,2,3.3,3.1,4.9c3.4-4.3,5.6-9,6.9-12.4
	c2-5.1,6.4-11.7,11.1-13.7c0,0,0.8,3.5,3,5.4c2.2,1.9,2.4,7.9-0.2,10.9s-6.2,7.8-6.2,7.8s1.3,11.1,1.8,14.7c0.1,0.6,0.1,1.4,0.1,2.1
	c1.3,0.8,2.7,1.4,4.2,2.1c-0.2-2.6-0.7-7.7-1.2-10.6C27.9,81.1,32.5,74.3,35.5,72.3z"/>
</svg>
