<?xml version="1.0" encoding="utf-8"?>
<!-- Generator: Adobe Illustrator 19.0.0, SVG Export Plug-In . SVG Version: 6.00 Build 0)  -->
<svg version="1.1" id="Layer_1" xmlns="http://www.w3.org/2000/svg" xmlns:xlink="http://www.w3.org/1999/xlink" x="0px" y="0px"
	 viewBox="450 -206 1200 600" style="enable-background:new 450 -206 1200 600;" xml:space="preserve">
<style type="text/css">
	.st0{fill:#20C9C9;}
	.st1{fill:#F42AAC;}
	.st2{fill:#2FEFF4;}
	.st3{fill:#04ADA8;}
</style>
<circle id="XMLID_129_" class="st0" cx="1016.6" cy="-42.6" r="150.7"/>
<g id="XMLID_211_">
	<path id="XMLID_220_" d="M1180.3-71.1c-3.8-4.6-8.4-9.5-10.9-11.3s-5.8-8-2.9-12.8c2.9-4.8,7.2-10.7,3.7-18s-4-10.2-4-10.2
		s-1,6-3,11.3s-3.5,10.8-4.1,16.7c-0.6,6-3.2,7.5-6.5,8.6c-3.3,1.2-8.3,0-11.5-6.7s-11.1-12.6-24.8-15.7c0,0,2.9,15.8,12.3,20.5
		c9.4,4.6,12.3,7.9,12.5,11.5c0.4,11.6-18,23.7-36.6,13.5c-18.5-10.1-50.8-55.1-110.9-44.8S893.8-4.2,880.8,43
		c-13,47.3-40.7,70.7-83.1,74.7c0,0,32.6,11,61.3-8.3c28.7-19.3,43.3-51.1,51.1-70.6c7.8-19.5,24.7-45.2,42.6-52.7
		c0,0,3,13.4,11.5,20.8c8.5,7.4,9.1,30.3-0.8,41.9c-9.9,11.6-24,30.3-24,30.3s4.9,42.7,7.1,56.7c2.2,14-3.7,34.5-12.7,38.5
		c0,0,1.6,4.5,6.2,3.8c0,0-3.4,5.8-2.9,9.6c0.6,3.8-1.4,10.2-4.2,12c0,0,8.1,4.4,14.2-6.6s16.3-34.7,16.3-34.7s-2.8-31.7-5.2-47.4
		c-2.5-15.7,15.2-41.9,27-49.9c11.8-7.9,52.6-22.1,81.3-64c0,0,21.7,4.2,39.2-1.2c1.2,4,2.9,8.7,3.7,13.3c1,6.4-3.5,9-10.8,12.4
		s-5.4,11.6-5.4,11.6s3-1.5,13.4-3.7s11.1-14.5,10.3-23.8c-0.8-8.8,6.3-18.7,7.2-19.9c11.2-8.5,18-17.8,22.4-24.3
		c5.7-8.3,23.9-11.1,32.2-11.1c8.3,0,22-0.8,22-0.8l-0.5-8.6C1200.5-59,1184.1-66.5,1180.3-71.1z"/>
	<g id="XMLID_214_">
		<path id="XMLID_215_" class="st1" d="M1049.1-7c-9.2,7.5-17.7,11.3-29.2,13.1c-28.6,4.5-53.5-13.3-57.8-41.3
			c-4.3-27.7,13.9-52.8,41.4-57.1c13.2-2.1,26.4,0.8,37.1,8c10.2,6.9,17,17.3,18.7,28.4c2.3,15-2,25.3-11,27c-2.9,0.5-5.9,0.8-8-0.8
			l-0.4-0.3c-1-1.1-1.7-2.5-2-4.2c-0.2-1-0.3-2.7-0.2-4l0.6-35.2l-15.4-0.1l-0.3,7c-4.3-4.3-10.1-7.3-18.9-5.9
			c-14.9,2.3-26.3,18.5-23.5,36.4c2.4,15.2,14.2,23,27.1,20.9c8.3-1.3,13.9-6,17.6-10.6c3.8,3.2,10.4,6.2,20.7,4.6
			c0.2,0,0.3-0.1,0.4-0.1c0.2,0,0.4-0.1,0.7-0.1c16.2-2.5,23.7-15.8,20.5-35.9c-2-13-10.1-25.2-22.1-33.4
			c-12.4-8.5-27.6-11.8-42.8-9.5c-31.5,4.9-53,34.5-48.1,66c5,31.8,34.4,52.8,66.9,47.7c12.6-2,23-6.8,32.9-15.1
			c7.2-6.2,11.4-8.2,17.4-7.8C1071.3-9.1,1061.4-16.7,1049.1-7z M1009.6-28.7c-7,1.1-12.7-2.6-13.9-10.5c-1.6-10.2,4.2-19,12.5-20.3
			c6.9-1.1,12.6,2.9,13.7,10.1C1023.5-39,1017.6-30,1009.6-28.7z"/>
	</g>
	<path id="XMLID_213_" class="st2" d="M1166.1-60.5c0,0-1.8-3.4-1.6-6.1c0-0.3,0-0.6,0-0.9c0-0.3,0-0.7-0.1-1
		c-0.6-4.1-4.5-6.9-8.6-6.3c-0.2,0-0.4,0.1-0.5,0.1c-0.3,0-0.5,0.1-0.8,0.2c-2.6,0.9-6.3-0.1-6.3-0.1s0.2,0.9,0.5,2
		c0.3,1,0.7,4.7,0.8,5.6c0,0.3,0,0.6,0.1,0.8c0.6,4.1,4.5,6.9,8.6,6.3c0.2,0,0.3-0.1,0.5-0.1c1.1-0.2,4.5-0.6,5.4-0.6
		C1165.3-60.5,1166.1-60.5,1166.1-60.5z"/>
	<circle id="XMLID_212_" cx="1157.2" cy="-67.3" r="5.8"/>
</g>
<g id="XMLID_28_">
	<path id="XMLID_208_" d="M625.6,194.2h13.8c2.3,7.4,6.1,13.2,11.3,17.3c5.3,4.2,11.5,6.2,18.7,6.2c4.3,0,7.8-0.9,10.4-2.8
		c2.6-1.8,3.9-4.2,3.9-7.2c0-4.6-5.7-8.5-17-11.6c-3.7-1-6.6-1.8-8.7-2.4c-6.8-2-12-3.8-15.7-5.2c-3.7-1.4-6.3-2.8-8-4
		c-3.9-2.9-6.7-6.1-8.6-9.6c-1.8-3.5-2.8-7.5-2.8-12c0-9.6,3.6-17.4,10.7-23.3c7.1-5.9,16.6-8.9,28.3-8.9c6,0,11.5,0.6,16.7,1.7
		c5.2,1.2,10.2,3,15,5.4l2.6-4.8H710v33.3h-16.1c-1.6-6.8-4.6-11.9-8.9-15.2c-4.4-3.3-10.2-5-17.5-5c-4.3,0-7.8,1-10.6,2.9
		c-2.8,2-4.2,4.4-4.2,7.2c0,4.3,5.3,7.5,15.9,9.7c2.6,0.6,4.6,1,6.1,1.3c14.8,3.4,25.2,7.6,31.1,12.7c6,5,8.9,11.9,8.9,20.6
		c0,9.7-3.7,17.4-11,23.1s-17.2,8.6-29.6,8.6c-5.7,0-11.1-0.6-16.4-1.9s-10.5-3.2-15.6-5.8l-3.6,5.3h-13.1v-35.6H625.6z"/>
	<path id="XMLID_206_" d="M751.8,148.6c-5.3,0-9.3,1.8-12.1,5.3c-2.8,3.6-4.2,8.7-4.2,15.5v0.4h-14.2v-36.3h100.9v36.3h-14v-0.4
		c0-6.7-1.4-11.9-4.2-15.5s-6.9-5.4-12.2-5.4h-4.2v59.1c0,3.7,0.5,6,1.5,6.9s3.2,1.4,6.6,1.4h8v13.6h-63.1v-13.6h7.5
		c3.2,0,5.3-0.4,6.4-1.2c1-0.8,1.5-3.1,1.5-7.1v-59.1h-4.2V148.6z"/>
	<path id="XMLID_203_" d="M866.4,229.5v-13.6h4.3c3.6,0,5.9-0.2,6.7-0.6c0.8-0.4,1.2-1.2,1.2-2.3c0-0.7-0.1-1.5-0.2-2.1
		c-0.1-0.6-0.3-1.3-0.5-2l-3.4-10.3h-25.8l-3,9.1c-0.5,1.4-0.9,2.5-1,3.3c-0.2,0.8-0.3,1.5-0.3,2.2c0,0.8,0.6,1.5,1.7,2
		c1.2,0.5,2.8,0.7,5,0.7h4.7v13.6h-42.9v-13.6h3.6c2.4,0,4.5-0.8,6.1-2.3c1.7-1.5,3.1-4,4.3-7.5l25.2-72.5h34.7l22.5,72.2
		c1.5,4.7,2.9,7.6,4.2,8.6c1.3,1,3.3,1.5,6.1,1.5h5v13.6L866.4,229.5L866.4,229.5z M870,184.9l-8.7-29l-8.2,29H870z"/>
	<path id="XMLID_200_" d="M933.3,207.7v-52.4c0-3.7-0.5-6-1.4-6.9c-0.9-0.9-3.1-1.3-6.5-1.3h-4.8v-13.5h66c11.7,0,20.4,2,26.1,5.9
		c5.7,4,8.6,9.9,8.6,17.9c0,5.4-1.8,9.9-5.3,13.6s-8.5,6.2-15,7.5c6.5,0.8,10.9,2.8,13.2,6s3.5,10.5,3.5,21.9c0,3.4,0.3,5.8,0.9,7.2
		c0.6,1.3,1.5,2,2.9,2c1.3,0,2.3-0.8,2.9-2.4c0.6-1.6,0.9-4.1,0.9-7.4c0-0.3,0-0.9-0.1-1.6c0-0.7-0.1-1.3-0.1-1.7h9.7
		c0,0.4,0,1.1,0.1,1.9c0,0.9,0.1,1.5,0.1,1.9c0,8.9-1.8,15.4-5.5,19.4c-3.7,4-9.6,6-17.8,6c-8.7,0-15-1.8-19-5.4s-6-9.4-6-17.3v-8
		c0-6.4-0.9-10.5-2.5-12.3c-1.7-1.7-5.2-2.6-10.6-2.6H965v21.5c0,3.7,0.5,6,1.4,6.9c1,0.9,3.1,1.3,6.4,1.3h5.4v13.6h-57.7v-13.6h4.8
		c3.4,0,5.5-0.4,6.5-1.3C932.8,213.7,933.3,211.4,933.3,207.7z M964.8,173.2h8.4c5.9,0,10.1-0.9,12.5-2.8s3.6-5,3.6-9.5
		c0-4.8-1.1-8.2-3.3-10.2s-6.1-2.9-11.7-2.9h-9.4L964.8,173.2L964.8,173.2z"/>
	<path id="XMLID_198_" d="M1062.8,148.6c-5.3,0-9.3,1.8-12.1,5.3c-2.8,3.6-4.2,8.7-4.2,15.5v0.4h-14.2v-36.3h100.9v36.3h-14v-0.4
		c0-6.7-1.4-11.9-4.2-15.5s-6.9-5.4-12.2-5.4h-4.2v59.1c0,3.7,0.5,6,1.5,6.9s3.2,1.4,6.6,1.4h8v13.6h-63.1v-13.6h7.5
		c3.2,0,5.3-0.4,6.4-1.2c1-0.8,1.5-3.1,1.5-7.1v-59.1h-4.2V148.6z"/>
	<path id="XMLID_196_" class="st1" d="M1170.8,148.6c-5.3,0-9.3,1.8-12.1,5.3c-2.8,3.6-4.2,8.7-4.2,15.5v0.4h-14.2v-36.3h100.9v36.3
		h-14v-0.4c0-6.7-1.4-11.9-4.2-15.5s-6.9-5.4-12.2-5.4h-4.2v59.1c0,3.7,0.5,6,1.5,6.9s3.2,1.4,6.6,1.4h8v13.6h-63.1v-13.6h7.5
		c3.2,0,5.3-0.4,6.4-1.2c1-0.8,1.5-3.1,1.5-7.1v-59.1h-4.2V148.6z"/>
	<path id="XMLID_194_" class="st1" d="M1304.2,133.6v13.5h-5.4c-3.2,0-5.2,0.4-6.2,1.1s-1.5,2.9-1.5,6.4v0.7v60.3h6.4
		c6,0,10.2-0.3,12.6-0.9s4.4-1.7,5.8-3.3c1.8-2,3.2-4.6,4.1-8c0.9-3.4,1.6-8,1.9-13.9h14.9v40h-90.3v-13.6h4.8
		c3.4,0,5.5-0.4,6.5-1.3s1.4-3.2,1.4-6.9v-52.4c0-3.7-0.5-6-1.4-6.9c-0.9-0.9-3.1-1.3-6.5-1.3h-4.8v-13.5L1304.2,133.6L1304.2,133.6
		z"/>
	<path id="XMLID_192_" class="st1" d="M1346.1,194.2h13.8c2.3,7.4,6.1,13.2,11.3,17.3c5.3,4.2,11.5,6.2,18.7,6.2
		c4.3,0,7.8-0.9,10.4-2.8c2.6-1.8,3.9-4.2,3.9-7.2c0-4.6-5.7-8.5-17-11.6c-3.7-1-6.6-1.8-8.7-2.4c-6.8-2-12-3.8-15.7-5.2
		c-3.7-1.4-6.3-2.8-8-4c-3.9-2.9-6.7-6.1-8.6-9.6c-1.8-3.5-2.8-7.5-2.8-12c0-9.6,3.6-17.4,10.7-23.3c7.1-5.9,16.6-8.9,28.3-8.9
		c6,0,11.5,0.6,16.7,1.7c5.2,1.2,10.2,3,15,5.4l2.6-4.8h13.8v33.3h-16.1c-1.6-6.8-4.6-11.9-8.9-15.2c-4.4-3.3-10.2-5-17.5-5
		c-4.3,0-7.8,1-10.6,2.9c-2.8,2-4.2,4.4-4.2,7.2c0,4.3,5.3,7.5,15.9,9.7c2.6,0.6,4.6,1,6.1,1.3c14.8,3.4,25.2,7.6,31.1,12.7
		c6,5,8.9,11.9,8.9,20.6c0,9.7-3.7,17.4-11,23.1c-7.3,5.7-17.2,8.6-29.6,8.6c-5.7,0-11.1-0.6-16.4-1.9c-5.3-1.3-10.5-3.2-15.6-5.8
		l-3.6,5.3h-13.1v-35.6H1346.1z"/>
	<path id="XMLID_190_" d="M711.9,241.1v32.6H698c-0.9-4.2-1.8-7.6-2.8-9.9c-1-2.4-2.2-4.3-3.7-5.7c-1.7-1.7-3.7-2.8-6-3.5
		c-2.4-0.7-6.2-1.1-11.5-1.1h-2.6h-11.2v24h3.4c3.9,0,6.7-1,8.3-2.9c1.6-1.9,2.4-5.3,2.4-10.2v-0.8h11v39.9h-11
		c-0.2-6.1-1-10.1-2.4-11.9c-1.4-1.8-4.2-2.7-8.2-2.7h-3.5v27.2h15.5c6,0,10.1-0.4,12.4-1.1c2.3-0.7,4-2,5.3-3.7
		c1.4-2.1,2.4-4.6,3.2-7.6c0.8-3,1.3-6.8,1.6-11.3h14.4v36.1h-92.3v-12.4h4.4c2.9,0,4.8-0.3,5.7-1c0.9-0.7,1.4-2.6,1.4-5.9v-0.6
		v-47.7c0-3.4-0.4-5.5-1.3-6.3s-2.8-1.2-5.9-1.2h-4.3V241h91.6V241.1z"/>
	<path id="XMLID_188_" d="M771.9,284.6c0.1-0.4,0.2-0.7,0.3-1.1s0.1-0.7,0.1-1c0-1.3-0.5-2.3-1.5-2.9s-2.8-1-5.2-1.2V267h30.1v11.5
		h-0.5c-2.6,0-4.6,0.5-6,1.6c-1.4,1-2.6,2.8-3.5,5.3L771,328.6h-28.5l-13.9-43.9c-0.8-2.6-1.5-4.3-2.3-5s-2-1.1-3.7-1.1h-2.4V267
		h40.2v11.5h-1.8c-1.9,0-3.3,0.3-4,0.8c-0.8,0.5-1.2,1.4-1.2,2.7c0,0.3,0.1,0.7,0.2,1.2c0.1,0.4,0.2,0.9,0.4,1.4l9,27.6L771.9,284.6
		z"/>
	<path id="XMLID_117_" d="M865.1,307.1c-1.5,8-4.9,13.9-10.3,17.9c-5.4,3.9-12.8,5.9-22.3,5.9c-10.8,0-19.4-3-25.7-8.9
		c-6.3-5.9-9.4-14-9.4-24.2c0-10.1,3.2-18.2,9.5-24.2s14.8-9,25.4-9c10.5,0,18.5,3,24.2,8.9c5.6,6,8.4,14.5,8.4,25.6v2.2H824v1.3
		c0,5.2,1.1,9.1,3.2,11.9c2.2,2.8,5.2,4.1,9.2,4.1c3.4,0,6.2-1,8.3-3c2.2-2,3.6-4.9,4.3-8.6L865.1,307.1L865.1,307.1z M823.9,290
		h18.9v-1c0-4.1-0.8-7.2-2.5-9.4c-1.7-2.2-4-3.3-7.1-3.3c-3,0-5.3,1.2-6.9,3.6C824.7,282.2,823.9,285.6,823.9,290z"/>
	<path id="XMLID_115_" d="M904.4,273c2.2-2.8,4.6-4.8,7.3-6.2c2.7-1.4,5.5-2,8.6-2c4.7,0,8.4,1.4,11.2,4.1c2.8,2.7,4.2,6.4,4.2,11
		c0,3.9-1.1,7.1-3.3,9.5c-2.2,2.4-5.2,3.6-8.8,3.6c-2.9,0-5.3-0.9-7.2-2.7c-1.9-1.8-2.9-4.1-2.9-6.8c0-1.9,0.5-3.5,1.4-4.9
		s2.4-2.6,4.3-3.6c-0.5-0.1-1-0.2-1.5-0.3c-0.5-0.1-0.9-0.1-1.3-0.1c-3.5,0-6.2,1.6-8.2,4.9c-2,3.2-3,7.7-3,13.4V311
		c0,2.5,0.4,4.2,1.2,4.9c0.8,0.8,2.5,1.2,5,1.2h4.1v11.5H871v-11.5h2.2c2.5,0,4.1-0.4,4.9-1.2c0.8-0.8,1.2-2.4,1.2-4.9v-26.4
		c0-2.5-0.4-4.2-1.2-5c-0.8-0.8-2.4-1.1-4.9-1.1H871V267h33.4V273z"/>
	<path id="XMLID_113_" d="M992.6,284.2c0.1-0.3,0.2-0.6,0.4-1.1c0.3-0.7,0.4-1.2,0.4-1.4c0-1.1-0.5-2-1.6-2.4
		c-1.1-0.5-3.2-0.8-6.3-0.9V267h31.4v11.5c-2.7,0-4.7,0.4-6.1,1.3c-1.4,0.9-2.7,2.7-3.9,5.6l-19.7,48.4c-3.1,7.7-7,13.4-11.8,17.2
		s-10.4,5.6-16.9,5.6c-6.4,0-11.4-1.6-15.2-4.7c-3.8-3.1-5.7-7.3-5.7-12.5c0-3.7,1.2-6.6,3.5-8.9c2.4-2.3,5.4-3.5,9.1-3.5
		c3.3,0,5.9,0.9,8,2.6c2.1,1.8,3.1,4,3.1,6.8c0,2.5-0.7,4.5-2.1,6c-1.4,1.6-3.4,2.6-6.1,3.2c0.6,0.8,1.3,1.3,2.1,1.7
		c0.8,0.4,1.7,0.5,2.6,0.5c2.5,0,5-1.1,7.4-3.3s4.6-5.3,6.5-9.4l-20.5-46.8c-0.1-0.2-0.2-0.4-0.4-0.8c-2.7-6-5.5-9-8.5-9h-2.4V267
		h40.2v11.5c-2.5,0-4.1,0.2-4.7,0.6c-0.6,0.3-0.9,1-0.9,1.8c0,0.6,0.2,1.4,0.6,2.4c0.1,0.3,0.2,0.6,0.3,0.8l8.8,21.6L992.6,284.2z"
		/>
	<path id="XMLID_106_" d="M1063.3,328.5h-26.5l-10.4-40.7c-1.1-4.1-2.1-6.7-2.9-7.8c-0.8-1.1-2.1-1.6-3.8-1.6h-3V267h36.7v11.5h-1.2
		c-1.4,0-2.5,0.3-3.1,0.8s-0.9,1.4-0.9,2.7c0,0.4,0,0.9,0.1,1.3s0.2,0.9,0.3,1.3l7.1,28.3l8.3-28.3c0.1-0.4,0.2-0.8,0.3-1.2
		c0.1-0.4,0.1-0.7,0.1-1c0-1.1-0.4-2-1.1-2.6c-0.8-0.6-2.1-1-4.1-1.3V267h36.5v11.5h-1.1c-1.4,0-2.3,0.3-2.9,0.8
		c-0.6,0.5-0.9,1.4-0.9,2.7c0,0.4,0,0.9,0.1,1.3c0.1,0.4,0.2,0.9,0.3,1.3l6.9,27.6l8-27.6c0.1-0.3,0.1-0.6,0.2-1
		c0-0.3,0.1-0.8,0.1-1.3c0-1.1-0.4-2-1.1-2.6c-0.8-0.6-2.1-1-3.9-1.3V267h26.7v11.5c-2.6,0-4.6,0.5-6,1.5s-2.5,2.8-3.3,5.3
		l-13.3,43.2h-25.6l-7.5-29.9L1063.3,328.5z"/>
	<path id="XMLID_87_" d="M1207.1,311c0,2.5,0.4,4.2,1.2,4.9c0.8,0.8,2.5,1.2,5,1.2h1.5v11.5h-40.2v-11.5h1.5c2.2,0,3.6-0.4,4.3-1.1
		c0.7-0.8,1-2.4,1-5v-22.2c0-3.6-0.7-6.2-2.1-8c-1.4-1.7-3.5-2.6-6.3-2.6c-3,0-5.4,1.1-7.2,3.4c-1.8,2.3-2.6,5.3-2.6,9.1V311
		c0,2.5,0.4,4.1,1.1,4.9c0.8,0.8,2.2,1.2,4.5,1.2h1.3v11.5h-40.8v-11.5h2.2c2.5,0,4.1-0.4,4.9-1.2c0.8-0.8,1.2-2.4,1.2-4.9v-52.3
		c0-2.5-0.4-4.1-1.2-4.9s-2.4-1.2-4.9-1.2h-2.2v-11.5h33.9v35.2c2.9-3.8,6.1-6.6,9.7-8.3c3.6-1.7,7.8-2.6,12.6-2.6
		c7.9,0,13.4,1.7,16.6,5.1c3.2,3.4,4.9,9.3,4.9,17.7L1207.1,311L1207.1,311z"/>
	<path id="XMLID_78_" d="M1287.3,307.1c-1.5,8-4.9,13.9-10.3,17.9c-5.4,3.9-12.8,5.9-22.3,5.9c-10.8,0-19.4-3-25.7-8.9
		s-9.4-14-9.4-24.2c0-10.1,3.2-18.2,9.5-24.2s14.8-9,25.4-9c10.5,0,18.5,3,24.2,8.9c5.6,6,8.4,14.5,8.4,25.6v2.2h-40.9v1.3
		c0,5.2,1.1,9.1,3.2,11.9c2.2,2.8,5.2,4.1,9.2,4.1c3.4,0,6.2-1,8.3-3c2.2-2,3.6-4.9,4.3-8.6L1287.3,307.1L1287.3,307.1z M1246.2,290
		h18.9v-1c0-4.1-0.8-7.2-2.5-9.4c-1.7-2.2-4-3.3-7.1-3.3c-3,0-5.3,1.2-6.9,3.6C1247,282.2,1246.2,285.6,1246.2,290z"/>
	<path id="XMLID_37_" d="M1326.7,273c2.2-2.8,4.6-4.8,7.3-6.2c2.7-1.4,5.5-2,8.6-2c4.7,0,8.4,1.4,11.2,4.1c2.8,2.7,4.2,6.4,4.2,11
		c0,3.9-1.1,7.1-3.3,9.5c-2.2,2.4-5.2,3.6-8.8,3.6c-2.9,0-5.3-0.9-7.2-2.7c-1.9-1.8-2.9-4.1-2.9-6.8c0-1.9,0.5-3.5,1.4-4.9
		c0.9-1.4,2.4-2.6,4.3-3.6c-0.5-0.1-1-0.2-1.5-0.3c-0.5-0.1-0.9-0.1-1.3-0.1c-3.5,0-6.2,1.6-8.2,4.9c-2,3.2-3,7.7-3,13.4V311
		c0,2.5,0.4,4.2,1.2,4.9c0.8,0.8,2.5,1.2,5,1.2h4.1v11.5h-44.3v-11.5h2.2c2.5,0,4.1-0.4,4.9-1.2c0.8-0.8,1.2-2.4,1.2-4.9v-26.4
		c0-2.5-0.4-4.2-1.2-5c-0.8-0.8-2.4-1.1-4.9-1.1h-2.2V267h33.4v6H1326.7z"/>
	<path id="XMLID_29_" d="M1430.8,307.1c-1.5,8-4.9,13.9-10.3,17.9c-5.4,3.9-12.8,5.9-22.3,5.9c-10.8,0-19.4-3-25.7-8.9
		s-9.4-14-9.4-24.2c0-10.1,3.2-18.2,9.5-24.2s14.8-9,25.4-9c10.5,0,18.5,3,24.2,8.9c5.6,6,8.4,14.5,8.4,25.6v2.2h-40.9v1.3
		c0,5.2,1.1,9.1,3.2,11.9c2.2,2.8,5.2,4.1,9.2,4.1c3.4,0,6.2-1,8.3-3c2.2-2,3.6-4.9,4.3-8.6L1430.8,307.1L1430.8,307.1z M1389.7,290
		h18.9v-1c0-4.1-0.8-7.2-2.5-9.4c-1.7-2.2-4-3.3-7.1-3.3c-3,0-5.3,1.2-6.9,3.6C1390.5,282.2,1389.7,285.6,1389.7,290z"/>
</g>
<g id="XMLID_1_">
	<path id="XMLID_2_" class="st3" d="M1016.3,348.3c1.9,1,3.4,2.4,4.7,4.4l-3.5,3.2c-0.8-1.7-1.8-3-3-3.8s-2.8-1.2-4.9-1.2
		c-2,0-3.5,0.4-4.6,1.2s-1.6,1.8-1.6,3.1c0,1.2,0.5,2.1,1.6,2.8s3,1.3,5.7,1.8c2.6,0.5,4.6,1,6.1,1.8c1.5,0.7,2.6,1.6,3.3,2.6
		c0.7,1.1,1,2.4,1,3.9c0,1.7-0.5,3.1-1.4,4.4c-1,1.3-2.3,2.2-4,2.9s-3.7,1-6,1c-5.8,0-9.9-1.9-12.3-5.8l3.2-3.2
		c0.9,1.7,2.1,3,3.6,3.8s3.3,1.2,5.4,1.2c2.1,0,3.7-0.4,4.8-1.1c1.2-0.7,1.8-1.7,1.8-3c0-1-0.5-1.9-1.6-2.5s-2.9-1.2-5.5-1.7
		s-4.7-1.1-6.3-1.8s-2.7-1.6-3.4-2.7c-0.7-1.1-1.1-2.4-1.1-3.9c0-1.6,0.4-3.1,1.3-4.4c0.9-1.3,2.2-2.4,3.9-3.2s3.7-1.2,5.9-1.2
		C1012.2,346.8,1014.4,347.3,1016.3,348.3z"/>
	<path id="XMLID_4_" class="st3" d="M1046.7,372.6l-0.3,3.1c-0.8,0.3-1.7,0.5-2.7,0.5c-1.2,0-2.2-0.2-3-0.7
		c-0.7-0.5-1.2-1.3-1.5-2.5c-0.7,1-1.6,1.8-2.9,2.4c-1.3,0.6-2.8,0.8-4.4,0.8c-2.1,0-3.8-0.5-5.1-1.5c-1.3-1-1.9-2.4-1.9-4.2
		c0-1.7,0.7-3.1,2.1-4.3c1.4-1.2,3.5-2,6.3-2.5l5.5-1v-1.2c0-1.3-0.4-2.4-1.2-3.1c-0.8-0.8-1.9-1.1-3.2-1.1c-2.9,0-4.7,1.3-5.6,3.9
		l-3.6-1.9c0.5-1.7,1.6-3.1,3.2-4.1c1.6-1,3.6-1.5,5.9-1.5c2.8,0,5,0.7,6.7,2c1.6,1.3,2.5,3.2,2.5,5.7v9.8c0,0.5,0.1,1,0.4,1.2
		c0.2,0.3,0.7,0.4,1.2,0.4C1045.7,372.8,1046.2,372.8,1046.7,372.6z M1037,371.6c1.2-0.8,1.8-1.7,1.8-3V366l-4.7,1
		c-1.5,0.3-2.6,0.7-3.3,1.2c-0.7,0.5-1.1,1.2-1.1,2.1c0,0.8,0.3,1.4,0.8,1.8c0.6,0.4,1.4,0.6,2.4,0.6
		C1034.5,372.8,1035.8,372.4,1037,371.6z"/>
	<path id="XMLID_7_" class="st3" d="M1056.7,354.2h7v3.6h-6.9v18h-4.6v-18h-4.1v-3.6h4.1v-3.1c0-2.2,0.7-3.9,2-5.1
		c1.3-1.2,3.2-1.8,5.6-1.8c0.9,0,1.7,0.1,2.4,0.3c0.7,0.2,1.3,0.4,1.7,0.8l-0.9,3.4c-0.7-0.4-1.5-0.6-2.5-0.6
		c-2.5,0-3.8,1.2-3.8,3.5V354.2z"/>
	<path id="XMLID_9_" class="st3" d="M1086.3,366.8h-15.9c0.3,1.9,0.9,3.4,2,4.4c1.1,1,2.5,1.5,4.2,1.5c1.4,0,2.6-0.3,3.5-0.8
		s1.6-1.2,1.9-2.2l3.9,1.6c-1.6,3.4-4.7,5-9.3,5c-3.4,0-6.1-1-8-3c-1.9-2-2.9-4.8-2.9-8.3c0-3.6,0.9-6.3,2.8-8.3c1.8-2,4.4-3,7.8-3
		c3.2,0,5.6,1,7.4,2.9s2.6,4.5,2.6,7.7C1086.5,365.2,1086.4,366,1086.3,366.8z M1072.4,358.9c-1,1-1.7,2.4-1.9,4.3h11.7
		c-0.2-1.8-0.8-3.2-1.8-4.2s-2.3-1.5-3.9-1.5C1074.7,357.4,1073.4,357.9,1072.4,358.9z"/>
	<path id="XMLID_12_" class="st3" d="M1105.5,354.2l-0.7,4.2c-0.7-0.4-1.6-0.6-2.7-0.6c-0.9,0-1.8,0.2-2.6,0.7s-1.5,1.2-2,2.2
		s-0.8,2.2-0.8,3.6v11.5h-4.7v-21.7h3.9l0.4,3.9c1.2-2.9,3.5-4.3,6.8-4.3C1104.2,353.8,1105,353.9,1105.5,354.2z"/>
	<path id="XMLID_14_" class="st3" d="M1146.6,347.3v28.6h-4.7v-12.5h-14.1v12.5h-4.6v-28.6h4.6v12.1h14.1v-12.1H1146.6z"/>
	<path id="XMLID_16_" class="st3" d="M1171.2,356.7c1.9,2,2.9,4.8,2.9,8.3s-1,6.3-2.9,8.3c-1.9,2-4.5,3-7.9,3c-3.4,0-6-1-7.9-3
		c-1.9-2-2.9-4.8-2.9-8.3s1-6.3,2.9-8.3c1.9-2,4.5-3,7.9-3C1166.7,353.8,1169.3,354.8,1171.2,356.7z M1158.8,359.4
		c-1.1,1.3-1.6,3.2-1.6,5.7s0.5,4.3,1.6,5.7c1.1,1.3,2.6,2,4.5,2c1.9,0,3.5-0.7,4.5-2c1.1-1.3,1.6-3.2,1.6-5.6s-0.5-4.3-1.6-5.6
		c-1.1-1.3-2.6-2-4.5-2C1161.4,357.6,1159.8,358.1,1158.8,359.4z"/>
	<path id="XMLID_20_" class="st3" d="M1198.4,356.7c1.7,2,2.6,4.7,2.6,8.3c0,3.5-0.9,6.3-2.6,8.3c-1.7,2-4,3-7,3c-1.6,0-3-0.3-4.2-1
		c-1.2-0.7-2.2-1.6-2.8-2.9V385h-4.6v-30.8h4.1l0.2,4c0.6-1.4,1.6-2.4,2.9-3.2s2.8-1.2,4.5-1.2
		C1194.3,353.8,1196.7,354.7,1198.4,356.7z M1194.7,370.5c1.1-1.3,1.6-3.2,1.6-5.5s-0.5-4.2-1.6-5.5c-1.1-1.3-2.5-2-4.4-2
		c-1.8,0-3.2,0.6-4.2,1.8c-1.1,1.2-1.6,2.8-1.8,4.9v1.6c0.1,2.1,0.7,3.7,1.8,4.9s2.5,1.8,4.2,1.8
		C1192.2,372.5,1193.7,371.9,1194.7,370.5z"/>
	<path id="XMLID_23_" class="st3" d="M1208.7,375.2c-1.7-0.8-3-1.9-3.8-3.4l3.1-2.7c0.5,1.2,1.4,2.2,2.6,2.7
		c1.2,0.6,2.5,0.9,4.2,0.9c1.5,0,2.6-0.2,3.4-0.7s1.2-1.1,1.2-1.9c0-0.7-0.4-1.2-1.1-1.7c-0.8-0.4-2.1-0.8-3.9-1.2
		c-3.2-0.6-5.5-1.4-6.8-2.4c-1.3-1-2-2.4-2-4.3c0-1.2,0.4-2.3,1.1-3.3s1.8-1.8,3.1-2.5c1.4-0.6,3-0.9,4.9-0.9c2.4,0,4.3,0.4,5.8,1.2
		c1.4,0.8,2.6,2,3.3,3.7l-3.3,2.4c-0.5-1.3-1.2-2.2-2.2-2.8c-0.9-0.6-2.1-0.9-3.6-0.9c-1.3,0-2.4,0.3-3.2,0.8
		c-0.9,0.5-1.3,1.1-1.3,1.8c0,0.8,0.4,1.4,1.1,1.9c0.8,0.5,2.2,0.9,4.2,1.3c3.1,0.5,5.2,1.3,6.5,2.3s1.9,2.4,1.9,4.2
		c0,1.9-0.8,3.5-2.5,4.7s-4,1.8-6.9,1.8C1212.3,376.3,1210.4,375.9,1208.7,375.2z"/>
	<path id="XMLID_25_" class="st3" d="M1248.5,354.2h7v3.6h-6.9v18h-4.6v-18h-4.1v-3.6h4.1v-3.1c0-2.2,0.7-3.9,2-5.1
		c1.3-1.2,3.2-1.8,5.6-1.8c0.9,0,1.7,0.1,2.4,0.3s1.3,0.4,1.7,0.8l-0.9,3.4c-0.7-0.4-1.5-0.6-2.5-0.6c-2.5,0-3.8,1.2-3.8,3.5V354.2z
		"/>
	<path id="XMLID_27_" class="st3" d="M1276.4,356.7c1.9,2,2.9,4.8,2.9,8.3s-1,6.3-2.9,8.3s-4.5,3-7.9,3s-6-1-7.9-3s-2.9-4.8-2.9-8.3
		s1-6.3,2.9-8.3s4.5-3,7.9-3C1271.8,353.8,1274.5,354.8,1276.4,356.7z M1263.9,359.4c-1.1,1.3-1.6,3.2-1.6,5.7s0.5,4.3,1.6,5.7
		c1.1,1.3,2.6,2,4.5,2s3.5-0.7,4.5-2c1.1-1.3,1.6-3.2,1.6-5.6s-0.5-4.3-1.6-5.6s-2.6-2-4.5-2S1265,358.1,1263.9,359.4z"/>
	<path id="XMLID_32_" class="st3" d="M1298.4,354.2l-0.7,4.2c-0.7-0.4-1.6-0.6-2.7-0.6c-0.9,0-1.8,0.2-2.6,0.7s-1.5,1.2-2,2.2
		s-0.8,2.2-0.8,3.6v11.5h-4.6v-21.7h3.9l0.4,3.9c1.2-2.9,3.5-4.3,6.8-4.3C1297,353.8,1297.8,353.9,1298.4,354.2z"/>
	<path id="XMLID_35_" class="st3" d="M1337.3,371.9v4H1316v-28.6h20.7v4h-16.1v8.2h12.6v3.9h-12.6v8.5L1337.3,371.9L1337.3,371.9z"
		/>
	<path id="XMLID_39_" class="st3" d="M1372.7,354.6c1.2,0.6,2.2,1.5,2.9,2.7c0.7,1.2,1.1,2.7,1.1,4.5v14h-4.6v-13.3
		c0-1.7-0.4-3-1.2-3.8s-1.9-1.2-3.2-1.2c-1.6,0-2.9,0.6-4,1.7c-1.1,1.1-1.6,2.7-1.6,4.8v11.8h-4.6v-13.3c0-1.7-0.4-3-1.2-3.8
		s-1.9-1.2-3.2-1.2c-0.9,0-1.8,0.2-2.7,0.7s-1.6,1.2-2.1,2.2s-0.8,2.3-0.8,3.8v11.5h-4.6V354h4.1l0.2,3.6c0.7-1.3,1.7-2.3,2.9-3
		s2.6-1,4.1-1c1.6,0,3.1,0.4,4.4,1.1c1.3,0.7,2.3,1.8,2.9,3.2c0.7-1.4,1.7-2.5,3.1-3.2c1.4-0.7,2.8-1.1,4.4-1.1
		C1370.2,353.8,1371.5,354.1,1372.7,354.6z"/>
	<path id="XMLID_41_" class="st3" d="M1403.7,372.6l-0.3,3.1c-0.8,0.3-1.7,0.5-2.7,0.5c-1.2,0-2.2-0.2-3-0.7
		c-0.7-0.5-1.2-1.3-1.5-2.5c-0.7,1-1.6,1.8-2.9,2.4c-1.3,0.6-2.8,0.8-4.4,0.8c-2.1,0-3.8-0.5-5.1-1.5c-1.3-1-1.9-2.4-1.9-4.2
		c0-1.7,0.7-3.1,2.1-4.3c1.4-1.2,3.5-2,6.3-2.5l5.5-1v-1.2c0-1.3-0.4-2.4-1.2-3.1c-0.8-0.8-1.9-1.1-3.2-1.1c-2.9,0-4.7,1.3-5.6,3.9
		l-3.6-1.9c0.5-1.7,1.6-3.1,3.2-4.1c1.6-1,3.6-1.5,5.9-1.5c2.8,0,5,0.7,6.7,2c1.6,1.3,2.5,3.2,2.5,5.7v9.8c0,0.5,0.1,1,0.4,1.2
		s0.7,0.4,1.2,0.4C1402.8,372.8,1403.3,372.8,1403.7,372.6z M1394.1,371.6c1.2-0.8,1.8-1.7,1.8-3V366l-4.7,1
		c-1.5,0.3-2.6,0.7-3.3,1.2c-0.7,0.5-1.1,1.2-1.1,2.1c0,0.8,0.3,1.4,0.8,1.8c0.6,0.4,1.4,0.6,2.4,0.6
		C1391.6,372.8,1392.9,372.4,1394.1,371.6z"/>
	<path id="XMLID_44_" class="st3" d="M1407.8,349.8c-0.5-0.5-0.8-1.2-0.8-2.1c0-0.9,0.3-1.6,0.8-2.1s1.3-0.7,2.3-0.7
		s1.7,0.2,2.3,0.7c0.5,0.5,0.8,1.2,0.8,2.1c0,0.9-0.3,1.6-0.8,2.1s-1.3,0.8-2.3,0.8C1409.2,350.5,1408.4,350.3,1407.8,349.8z
		 M1412.4,375.9h-4.6v-21.7h4.6V375.9z"/>
	<path id="XMLID_47_" class="st3" d="M1423.9,369.5c0,1.1,0.2,1.8,0.5,2.2s0.9,0.6,1.8,0.6c0.5,0,1,0,1.4-0.1
		c0.4-0.1,0.9-0.2,1.5-0.5l-0.5,3.7c-1,0.5-2.2,0.7-3.6,0.7c-1.9,0-3.4-0.5-4.3-1.5s-1.4-2.5-1.4-4.6v-25.7h4.6V369.5z"/>
	<path id="XMLID_49_" class="st3" d="M1437.5,370.8c0.6,0.6,0.9,1.3,0.9,2.3s-0.3,1.7-0.9,2.3c-0.6,0.6-1.4,0.9-2.4,0.9
		s-1.8-0.3-2.4-0.9c-0.6-0.6-0.9-1.3-0.9-2.3s0.3-1.7,0.9-2.3c0.6-0.6,1.4-0.8,2.4-0.8C1436.2,370,1437,370.3,1437.5,370.8z"/>
</g>
</svg>
